<?xml version="1.0" encoding="UTF-8" standalone="no"?>
<!-- Created with Inkscape (http://www.inkscape.org/) -->

<svg
   xmlns:dc="http://purl.org/dc/elements/1.1/"
   xmlns:cc="http://creativecommons.org/ns#"
   xmlns:rdf="http://www.w3.org/1999/02/22-rdf-syntax-ns#"
   xmlns:svg="http://www.w3.org/2000/svg"
   xmlns="http://www.w3.org/2000/svg"
   xmlns:sodipodi="http://sodipodi.sourceforge.net/DTD/sodipodi-0.dtd"
   xmlns:inkscape="http://www.inkscape.org/namespaces/inkscape"
   width="1675.9091"
   height="800"
   id="svg2"
   version="1.1"
   inkscape:version="0.48.4 r9939"
   sodipodi:docname="Пушка на Дворцовой площади в Стокгольме.svg">
  <defs
     id="defs4" />
  <sodipodi:namedview
     id="base"
     pagecolor="#ffffff"
     bordercolor="#666666"
     borderopacity="1.0"
     inkscape:pageopacity="0.0"
     inkscape:pageshadow="2"
     inkscape:zoom="0.175"
     inkscape:cx="1073.7017"
     inkscape:cy="1223.3855"
     inkscape:document-units="px"
     inkscape:current-layer="g3138"
     showgrid="false"
     showguides="true"
     inkscape:guide-bbox="true"
     inkscape:snap-global="false"
     inkscape:snap-center="true"
     inkscape:snap-object-midpoints="true"
     inkscape:window-width="1920"
     inkscape:window-height="1018"
     inkscape:window-x="-8"
     inkscape:window-y="-8"
     inkscape:window-maximized="1"
     fit-margin-top="0"
     fit-margin-left="0"
     fit-margin-right="0"
     fit-margin-bottom="0" />
  <metadata
     id="metadata7">
    <rdf:RDF>
      <cc:Work
         rdf:about="">
        <dc:format>image/svg+xml</dc:format>
        <dc:type
           rdf:resource="http://purl.org/dc/dcmitype/StillImage" />
        <dc:title />
      </cc:Work>
    </rdf:RDF>
  </metadata>
  <g
     inkscape:label="Layer 1"
     inkscape:groupmode="layer"
     id="layer1"
     transform="translate(321.52549,-29.49999)">
    <g
       id="g3138"
       transform="matrix(1.3793103,0,0,1.3793103,121.95795,-314.63793)">
      <path
         inkscape:connector-curvature="0"
         id="path4460"
         d="m 211.84375,323.90625 c -112.362494,0 -203.4375006,91.07501 -203.4375006,203.4375 0,112.36249 91.0750066,203.46875 203.4375006,203.46875 112.36249,0 203.4375,-91.10626 203.4375,-203.46875 0,-112.36249 -91.07501,-203.4375 -203.4375,-203.4375 z m 0,10 c 106.83965,0 193.4375,86.59785 193.4375,193.4375 0,106.83965 -86.59785,193.46875 -193.4375,193.46875 -106.83965,0 -193.437501,-86.6291 -193.437501,-193.46875 0,-106.83965 86.597851,-193.4375 193.437501,-193.4375 z"
         style="fill:#dadff2;fill-opacity:1;stroke:none" />
      <path
         sodipodi:nodetypes="cccsscccc"
         inkscape:connector-curvature="0"
         id="path4382"
         d="m 625.71429,610.93361 c 10.24067,-4.74625 12.40861,-10.88144 17.85714,-20.35714 l 10,-25 1.38525,-6.90826 c 1.5345,-7.65264 12.01675,-4.54342 9.64285,2.5 l -3.17096,9.40826 -7.85714,22.5 -6.42857,17.5 -5,9.28571"
         style="fill:#2c2735;fill-opacity:1;stroke:none" />
      <path
         sodipodi:nodetypes="cccc"
         inkscape:connector-curvature="0"
         id="path4356"
         d="M 456.42858,489.50504 716.78572,625.57647 728.21429,605.21932 473.25647,483.6463"
         style="fill:#343647;fill-opacity:1;stroke:none" />
      <path
         sodipodi:nodetypes="csscccc"
         inkscape:connector-curvature="0"
         id="path4440"
         d="m 644.43051,565.85485 c -0.15076,0.46965 -0.24178,0.97143 -0.28125,1.46875 -0.13295,1.67516 0.42797,3.88665 1.9375,4.625 l 76.06949,37.20765 3,1.5 3.0625,-5.4375 z"
         style="fill:#dadff2;fill-opacity:1;stroke:none" />
      <path
         sodipodi:nodetypes="csccssccsc"
         inkscape:connector-curvature="0"
         id="path4384"
         d="m 629.0725,610.42044 c 2.60956,-1.51523 6.05081,-2.10746 7.82868,-4.54568 4.32512,-5.93159 6.56599,-13.13199 9.84899,-19.69798 2.60956,-5.47166 5.21912,-10.94332 7.82868,-16.41498 1.93613,-3.19882 3.29264,-6.83021 5.80838,-9.59645 6.9151,-7.60366 12.58425,-1.72971 8.83883,5.55584 -1.13196,2.20187 -2.8621,4.04061 -4.29315,6.06092 -2.00574,7.77838 -5.08987,14.90464 -8.08122,21.71828 -2.52538,6.06091 -6.13345,11.77721 -7.57614,18.18274 -0.72725,3.22898 0.84179,6.56599 1.26269,9.84899"
         style="fill:#343647;fill-opacity:1;stroke:none" />
      <path
         inkscape:connector-curvature="0"
         id="path4380"
         d="m 530.71429,580.57647 c 1.42857,-1.42857 8.21428,-12.5 8.21428,-12.5 l 115.71429,52.85714 -6.07143,12.5"
         style="fill:#2c2735;fill-opacity:1;stroke:none" />
      <path
         sodipodi:nodetypes="cccsscsssc"
         inkscape:connector-curvature="0"
         id="path4378"
         d="m 782.14286,625.21932 c 5.47619,7.26191 10.95238,14.52381 16.42857,21.78572 2.5,1.54762 3.92857,2.20238 6.42857,3.75 7.60237,0.80246 10.67725,-7.12041 11.78572,-7.67857 1.24454,-0.62667 2.85295,0.54276 3.92857,1.42857 1.07169,0.88257 1.42857,2.38095 2.14285,3.57143 0.83333,-2.38095 2.96893,-4.66425 2.5,-7.14286 -0.48736,-2.57606 -2.40725,-5.68252 -5,-6.07143 -5.49689,-0.82454 -11.03912,4.2171 -16.42857,2.85714 -8.1179,-2.04844 -14.52381,-8.33333 -21.78571,-12.5 z"
         style="fill:#2c2735;fill-opacity:1;stroke:none" />
      <path
         sodipodi:nodetypes="ccsssssssssssc"
         inkscape:connector-curvature="0"
         id="path4358"
         d="m 726.04714,602.59176 c -4.29315,7.57614 -8.58629,15.15229 -12.87944,22.72843 23.6544,10.18571 44.04356,17.59081 67.04887,29.16816 3.26468,1.64294 4.05372,6.99455 9.09137,9.72271 4.65118,2.51887 8.39208,0.64135 10.98541,2.52539 7.51494,5.45957 14.45996,11.89235 20.20306,19.1929 4.32959,5.50372 7.06915,14.11717 9.59645,18.68782 1.32181,2.39051 7.49071,-1.89807 6.81852,-4.54569 -1.95952,-7.71816 -5.21457,-12.95453 -8.33375,-19.1929 -2.53099,-5.06197 -4.99775,-10.27093 -8.5863,-14.64721 -3.4044,-4.1517 -8.44973,-6.68969 -12.12183,-10.6066 -2.68383,-2.86275 -3.66131,-7.26617 -6.81853,-9.59645 -5.5299,-4.0815 -9.90768,-1.6283 -13.63706,-3.78807 -21.47767,-12.43825 -40.57446,-26.09561 -61.36677,-39.64849 z"
         style="fill:#343647;fill-opacity:1;stroke:none" />
      <path
         inkscape:connector-curvature="0"
         id="path3973"
         d="m 211.84375,305.53125 c -122.518104,0 -221.843751,99.2944 -221.843751,221.8125 0,122.5181 99.325647,221.84375 221.843751,221.84375 122.5181,0 221.84375,-99.32565 221.84375,-221.84375 0,-122.5181 -99.32565,-221.8125 -221.84375,-221.8125 z m 0,8.5625 c 117.77602,0 213.25,95.47398 213.25,213.25 0,117.77602 -95.47398,213.25 -213.25,213.25 -117.776024,0 -213.2500006,-95.47398 -213.2500006,-213.25 0,-117.77602 95.4739766,-213.25 213.2500006,-213.25 z"
         style="fill:#2c2735;fill-opacity:1;stroke:none" />
      <path
         transform="matrix(0.67460003,0,0,0.67460003,99.572277,163.40578)"
         sodipodi:type="arc"
         style="fill:none;stroke:#0000ff;stroke-width:0.65362817;stroke-linecap:round;stroke-linejoin:round;stroke-miterlimit:4;stroke-opacity:1;stroke-dasharray:none;stroke-dashoffset:0.8"
         id="path3977"
         sodipodi:cx="166.42857"
         sodipodi:cy="539.50507"
         sodipodi:rx="290"
         sodipodi:ry="290"
         d="m 456.42857,539.50507 c 0,160.16257 -129.83742,290 -290,290 -160.1625738,0 -290,-129.83743 -290,-290 0,-160.16258 129.8374262,-290 290,-290 160.16258,0 290,129.83742 290,290 z" />
      <path
         inkscape:connector-curvature="0"
         style="fill:#2c2735;fill-opacity:1;stroke:none"
         d="m 209.2513,327.36259 0,1.26697 -3.8248,0.93229 c -1.0928,53.82046 4.18254,124.81212 -4.37462,160.90474 l 8.74924,3.72918 0,1.74507 2.05583,-0.86058 2.03193,0.86058 0,-1.74507 8.74924,-3.72918 C 214.08096,454.37397 219.3563,383.38231 218.2635,329.56185 l -3.82481,-0.93229 0,-1.26697 -2.58174,0.62153 -2.60565,-0.62153 z"
         id="path3983" />
      <path
         inkscape:connector-curvature="0"
         style="fill:#dadff2;fill-opacity:1;stroke:none"
         d="m 207.00423,329.17937 -1.57773,0.38248 c -1.0928,53.82046 4.18254,124.81212 -4.37462,160.90474 l 2.27098,0.9801 1.55382,-0.14343 c 11.18681,-33.63577 1.48226,-107.46997 2.12755,-162.12389 z"
         id="path3985" />
      <path
         id="path3989"
         d="m 109.60213,355.45346 0.63349,1.09723 -2.84623,2.71979 c 25.96383,47.15629 66.02824,105.9992 76.66383,141.5349 l 9.44166,-1.14505 0.87253,1.51127 1.35011,-1.7732 2.19,-0.27068 -0.87254,-1.51127 5.71247,-7.60419 c -25.45702,-26.97854 -56.38427,-91.09679 -84.2409,-137.16028 l -3.77852,1.10501 -0.63349,-1.09722 -1.92508,1.82913 -2.56733,0.76456 z"
         style="fill:#2c2735;fill-opacity:1;stroke:none"
         inkscape:connector-curvature="0" />
      <path
         id="path3991"
         d="m 108.5645,358.15038 -1.17511,1.1201 c 25.96383,47.15629 66.02824,105.9992 76.66383,141.5349 l 2.45678,-0.28669 1.27394,-0.90113 C 180.65411,464.89472 135.33262,405.80471 108.5645,358.15038 z"
         style="fill:#dadff2;fill-opacity:1;stroke:none"
         inkscape:connector-curvature="0" />
      <path
         inkscape:connector-curvature="0"
         style="fill:#2c2735;fill-opacity:1;stroke:none"
         d="m 37.34886,429.60546 1.097225,0.63348 -1.10501,3.77853 c 46.063483,27.85662 110.181735,58.78387 137.160275,84.2409 l 7.60419,-5.71248 1.51127,0.87254 0.28263,-2.2107 1.76125,-1.32941 -1.51127,-0.87253 1.14505,-9.44166 c -35.5357,-10.63559 -94.378612,-50.7 -141.534896,-76.66383 l -2.719794,2.84623 -1.097225,-0.63349 -0.75261,2.54662 -1.841085,1.9458 z"
         id="path3995" />
      <path
         id="path3997"
         d="m 99.043998,461.44589 c 47.086122,28.34134 65.266982,41.01419 83.691502,37.31575 l 0,-0.0239 c -12.16325,-3.98584 -26.80416,-11.0867 -42.64657,-19.74552 L 99.043998,461.44593 z"
         style="fill:#dadff2;fill-opacity:1;stroke:none"
         inkscape:connector-curvature="0" />
      <path
         id="path4001"
         d="m 11.851689,529.94959 1.266967,0 0.932296,3.82481 c 53.820458,1.0928 124.812118,-4.18254 160.904738,4.37462 l 3.72918,-8.74924 1.74507,0 -0.86058,-2.05583 0.86058,-2.03193 -1.74507,0 -3.72918,-8.74924 c -36.09262,8.55716 -107.08428,3.28182 -160.904738,4.37462 l -0.932296,3.8248 -1.266967,0 0.621531,2.58175 -0.621531,2.60564 z"
         style="fill:#2c2735;fill-opacity:1;stroke:none"
         inkscape:connector-curvature="0" />
      <path
         id="path4003"
         d="m 170.66346,517.47927 c -14.58577,2.84004 -33.87524,3.80764 -55.02937,4.01604 l -51.156758,5.47425 c 40.872578,0.48258 43.020578,-2.4983 80.512128,-0.52591 11.65357,0.61308 21.75566,-5.12735 25.674,-8.96438 z"
         style="fill:#dadff2;fill-opacity:1;stroke:none"
         inkscape:connector-curvature="0" />
      <path
         inkscape:connector-curvature="0"
         style="fill:#dadff2;fill-opacity:1;stroke:none"
         d="m 39.942561,629.59876 1.097225,-0.63349 2.719795,2.84623 C 90.915864,605.84767 149.75878,565.78326 185.29448,555.14767 l -1.14505,-9.44166 1.51127,-0.87253 -1.7732,-1.35011 -0.27068,-2.19 -1.51127,0.87254 -7.60419,-5.71247 c -26.97854,25.45702 -91.096795,56.38427 -137.160279,84.2409 l 1.10501,3.77852 -1.097225,0.63349 1.829133,1.92508 0.764562,2.56733 z"
         id="path4007" />
      <path
         sodipodi:nodetypes="cccccc"
         inkscape:connector-curvature="0"
         style="fill:#2c2735;fill-opacity:1;stroke:none"
         d="m 40.514481,621.36366 3.2451,10.44784 C 90.915864,605.84767 149.75878,565.78326 185.29448,555.14767 l -0.28669,-2.45678 -13.26476,-13.05803 c -0.61484,19.27189 -127.897209,82.36638 -131.228549,81.7308 z"
         id="path4009" />
      <path
         id="path4013"
         d="m 114.09456,701.85204 0.63348,-1.09722 3.77853,1.10501 c 27.85662,-46.06349 58.78387,-110.18174 84.2409,-137.16028 l -5.71248,-7.60419 0.87254,-1.51127 -2.2107,-0.28263 -1.32941,-1.76125 -0.87253,1.51127 -9.44166,-1.14505 c -10.63559,35.5357 -50.7,94.37861 -76.66383,141.5349 l 2.84623,2.71979 -0.63349,1.09722 2.54662,0.75261 1.9458,1.84109 z"
         style="fill:#dadff2;fill-opacity:1;stroke:none"
         inkscape:connector-curvature="0" />
      <path
         sodipodi:nodetypes="cccccsc"
         id="path4015"
         d="m 109.98236,697.57739 8.52421,4.28244 c 27.85662,-46.06349 58.78387,-110.18174 84.2409,-137.16028 l -1.47668,-1.98429 -17.94599,-4.7507 c 2.81382,9.61362 -1.17884,23.93661 -10.59951,38.42937 -19.37023,29.79918 -40.32074,69.55625 -62.74293,101.18346 z"
         style="fill:#2c2735;fill-opacity:1;stroke:none"
         inkscape:connector-curvature="0" />
      <path
         inkscape:connector-curvature="0"
         style="fill:#dadff2;fill-opacity:1;stroke:none"
         d="m 214.4387,727.34923 0,-1.26697 3.82481,-0.93229 c 1.0928,-53.82046 -4.18254,-124.81212 4.37462,-160.90474 l -8.74924,-3.72918 0,-1.74507 -2.05583,0.86058 -2.03193,-0.86058 0,1.74507 -8.74924,3.72918 c 8.55716,36.09262 3.28182,107.08428 4.37462,160.90474 l 3.8248,0.93229 0,1.26697 2.58175,-0.62153 2.60564,0.62153 z"
         id="path4019" />
      <path
         inkscape:connector-curvature="0"
         style="fill:#2c2735;fill-opacity:1;stroke:none"
         d="m 216.68578,725.53245 1.57773,-0.38248 c 1.0928,-53.82046 -4.18254,-124.81212 4.37462,-160.90474 l -2.27098,-0.9801 -1.55383,0.14343 c -11.18681,33.63577 -1.48225,107.46997 -2.12754,162.12389 z"
         id="path4021" />
      <path
         id="path4025"
         d="m 314.08787,699.25836 -0.63349,-1.09723 2.84623,-2.71979 c -25.96383,-47.15629 -66.02824,-105.9992 -76.66383,-141.5349 l -9.44166,1.14505 -0.87253,-1.51127 -1.35011,1.7732 -2.19,0.27068 0.87254,1.51127 -5.71247,7.60419 c 25.45702,26.97854 56.38427,91.09679 84.2409,137.16028 l 3.77852,-1.10501 0.63349,1.09722 1.92508,-1.82913 2.56733,-0.76456 z"
         style="fill:#dadff2;fill-opacity:1;stroke:none"
         inkscape:connector-curvature="0" />
      <path
         id="path4027"
         d="m 315.1255,696.56144 1.17511,-1.1201 c -25.96383,-47.15629 -66.02824,-105.9992 -76.66383,-141.5349 l -2.45678,0.28669 -1.27394,0.90113 c 7.12983,34.72284 52.45132,93.81285 79.21944,141.46718 z"
         style="fill:#2c2735;fill-opacity:1;stroke:none"
         inkscape:connector-curvature="0" />
      <path
         inkscape:connector-curvature="0"
         style="fill:#2c2735;fill-opacity:1;stroke:none"
         d="m 386.34116,625.10636 -1.09722,-0.63348 1.10501,-3.77853 C 340.28546,592.83773 276.16721,561.91048 249.18867,536.45345 l -7.60419,5.71248 -1.51127,-0.87254 -0.28263,2.2107 -1.76125,1.32941 1.51127,0.87253 -1.14505,9.44166 c 35.5357,10.63559 94.37861,50.7 141.5349,76.66383 l 2.71979,-2.84623 1.09722,0.63349 0.75261,-2.54662 1.84109,-1.9458 z"
         id="path4031" />
      <path
         id="path4033"
         d="m 271.73393,557.23334 c -2.99615,-0.10163 -4.38872,2.48315 -3.05984,5.06786 25.86086,18.45886 106.88447,58.11101 110.10655,68.87039 0.18789,0.10392 0.3862,0.20727 0.57372,0.31076 l 7.00418,-10.78117 c -27.63562,-16.71248 -61.7427,-34.53234 -90.45662,-51.61095 -7.10178,-3.6047 -14.30999,-7.30092 -21.8492,-11.33098 -0.84969,-0.34226 -1.62737,-0.50246 -2.31879,-0.52591 z"
         style="fill:#dadff2;fill-opacity:1;stroke:none"
         inkscape:connector-curvature="0" />
      <path
         id="path4037"
         d="m 411.83834,524.76222 -1.26697,0 -0.93229,-3.82481 c -53.82046,-1.0928 -124.81212,4.18254 -160.90474,-4.37462 l -3.72918,8.74924 -1.74507,0 0.86058,2.05583 -0.86058,2.03193 1.74507,0 3.72918,8.74924 c 36.09262,-8.55716 107.08428,-3.28182 160.90474,-4.37462 l 0.93229,-3.8248 1.26697,0 -0.62153,-2.58175 0.62153,-2.60564 z"
         style="fill:#343647;fill-opacity:1;stroke:none"
         inkscape:connector-curvature="0" />
      <path
         sodipodi:nodetypes="cccccsc"
         id="path4039"
         d="m 408.92876,522.7115 0.71032,-1.77409 c -53.82046,-1.0928 -124.81212,4.18254 -160.90474,-4.37462 l -0.9801,2.27098 0.14343,1.55383 c 26.18444,8.70859 77.14517,5.68323 123.76029,5.13677 20.091,-0.23553 32.81293,-3.09242 37.2708,-2.81287 z"
         style="fill:#dadff2;fill-opacity:1;stroke:none"
         inkscape:connector-curvature="0" />
      <path
         inkscape:connector-curvature="0"
         style="fill:#2c2735;fill-opacity:1;stroke:none"
         d="m 383.74745,425.11303 -1.09723,0.63349 -2.71979,-2.84623 c -47.15629,25.96383 -105.9992,66.02824 -141.5349,76.66383 l 1.14505,9.44166 -1.51127,0.87253 1.7732,1.35011 0.27068,2.19 1.51127,-0.87254 7.60419,5.71247 c 26.97854,-25.45702 91.09679,-56.38427 137.16028,-84.2409 l -1.10501,-3.77852 1.09722,-0.63349 -1.82913,-1.92508 -0.76456,-2.56733 z"
         id="path4043" />
      <path
         inkscape:connector-curvature="0"
         style="fill:#dadff2;fill-opacity:1;stroke:none"
         d="m 381.05053,424.0754 -1.1201,-1.17511 c -47.15629,25.96383 -105.9992,66.02824 -141.5349,76.66383 l 0.28669,2.45678 0.90113,1.27394 c 34.72284,-7.12983 93.81285,-52.45132 141.46718,-79.21944 z"
         id="path4045" />
      <path
         id="path4049"
         d="m 309.59545,352.85976 -0.63348,1.09722 -3.77853,-1.10501 c -27.85662,46.06349 -58.78387,110.18174 -84.2409,137.16028 l 5.71248,7.60419 -0.87254,1.51127 2.2107,0.28263 1.32941,1.76125 0.87253,-1.51127 9.44166,1.14505 c 10.63559,-35.5357 50.7,-94.37861 76.66383,-141.5349 l -2.84623,-2.71979 0.63349,-1.09722 -2.54662,-0.75261 -1.9458,-1.84109 z"
         style="fill:#2c2735;fill-opacity:1;stroke:none"
         inkscape:connector-curvature="0" />
      <path
         id="path4051"
         d="m 306.74104,353.3096 -1.5576,-0.45763 c -27.85662,46.06349 -58.78387,110.18174 -84.2409,137.16028 l 1.47668,1.98429 1.41736,0.6527 c 26.50595,-23.53603 55.01866,-92.3306 82.90446,-139.33964 z"
         style="fill:#dadff2;fill-opacity:1;stroke:none"
         inkscape:connector-curvature="0" />
      <path
         transform="matrix(0.15126025,0,0,0.15126025,186.67097,445.75025)"
         sodipodi:type="arc"
         style="fill:none;stroke:#0000ff;stroke-width:1.98333657;stroke-linecap:round;stroke-linejoin:round;stroke-miterlimit:4;stroke-opacity:1;stroke-dasharray:none;stroke-dashoffset:0.8"
         id="path4053"
         sodipodi:cx="166.42857"
         sodipodi:cy="539.50507"
         sodipodi:rx="290"
         sodipodi:ry="290"
         d="m 456.42857,539.50507 c 0,160.16257 -129.83742,290 -290,290 -160.1625738,0 -290,-129.83743 -290,-290 0,-160.16258 129.8374262,-290 290,-290 160.16258,0 290,129.83742 290,290 z" />
      <path
         d="m 456.42857,539.50507 c 0,160.16257 -129.83742,290 -290,290 -160.1625738,0 -290,-129.83743 -290,-290 0,-160.16258 129.8374262,-290 290,-290 160.16258,0 290,129.83742 290,290 z"
         sodipodi:ry="290"
         sodipodi:rx="290"
         sodipodi:cy="539.50507"
         sodipodi:cx="166.42857"
         id="path4055"
         style="fill:none;stroke:#0000ff;stroke-width:2.03941083;stroke-linecap:round;stroke-linejoin:round;stroke-miterlimit:4;stroke-opacity:1;stroke-dasharray:none;stroke-dashoffset:0.8"
         sodipodi:type="arc"
         transform="matrix(0.14726789,0,0,0.14693489,188.4945,449.33948)" />
      <g
         transform="matrix(0.76496086,0,0,0.76496086,84.533652,114.65566)"
         id="g4067"
         style="stroke:#0000ff;stroke-width:1.0177201">
        <path
           d="m 170.71875,496.90157 -5.86049,1.57031 -4.29018,-4.29018 1.57031,-5.86049 5.8605,-1.57032 4.29018,4.29018 z"
           inkscape:randomized="0"
           inkscape:rounded="0"
           inkscape:flatsided="true"
           sodipodi:arg2="1.3089969"
           sodipodi:arg1="0.78539816"
           sodipodi:r2="5.2543764"
           sodipodi:r1="6.0672312"
           sodipodi:cy="492.61139"
           sodipodi:cx="166.42857"
           sodipodi:sides="6"
           id="path4069"
           style="fill:none;stroke:#0000ff;stroke-width:0.39217696;stroke-linecap:round;stroke-linejoin:round;stroke-miterlimit:4;stroke-opacity:1;stroke-dasharray:none;stroke-dashoffset:0.8"
           sodipodi:type="star" />
        <path
           d="m 168.82174,492.61139 c 0,1.32171 -1.07145,2.39317 -2.39317,2.39317 -1.32171,0 -2.39317,-1.07146 -2.39317,-2.39317 0,-1.32171 1.07146,-2.39317 2.39317,-2.39317 1.32172,0 2.39317,1.07146 2.39317,2.39317 z"
           sodipodi:ry="2.3931708"
           sodipodi:rx="2.3931708"
           sodipodi:cy="492.61139"
           sodipodi:cx="166.42857"
           id="path4071"
           style="fill:none;stroke:#0000ff;stroke-width:0.39217696;stroke-linecap:round;stroke-linejoin:round;stroke-miterlimit:4;stroke-opacity:1;stroke-dasharray:none;stroke-dashoffset:0.8"
           sodipodi:type="arc" />
      </g>
      <g
         id="g4073"
         transform="matrix(-0.38248043,-0.66247553,0.66247553,-0.38248043,-81.908223,808.08907)"
         inkscape:transform-center-y="-23.446829"
         inkscape:transform-center-x="40.611094"
         style="stroke:#0000ff;stroke-width:1.0177201">
        <path
           sodipodi:type="star"
           style="fill:none;stroke:#0000ff;stroke-width:0.39217696;stroke-linecap:round;stroke-linejoin:round;stroke-miterlimit:4;stroke-opacity:1;stroke-dasharray:none;stroke-dashoffset:0.8"
           id="path4075"
           sodipodi:sides="6"
           sodipodi:cx="166.42857"
           sodipodi:cy="492.61139"
           sodipodi:r1="6.0672312"
           sodipodi:r2="5.2543764"
           sodipodi:arg1="0.78539816"
           sodipodi:arg2="1.3089969"
           inkscape:flatsided="true"
           inkscape:rounded="0"
           inkscape:randomized="0"
           d="m 170.71875,496.90157 -5.86049,1.57031 -4.29018,-4.29018 1.57031,-5.86049 5.8605,-1.57032 4.29018,4.29018 z" />
        <path
           sodipodi:type="arc"
           style="fill:none;stroke:#0000ff;stroke-width:0.39217696;stroke-linecap:round;stroke-linejoin:round;stroke-miterlimit:4;stroke-opacity:1;stroke-dasharray:none;stroke-dashoffset:0.8"
           id="path4077"
           sodipodi:cx="166.42857"
           sodipodi:cy="492.61139"
           sodipodi:rx="2.3931708"
           sodipodi:ry="2.3931708"
           d="m 168.82174,492.61139 c 0,1.32171 -1.07145,2.39317 -2.39317,2.39317 -1.32171,0 -2.39317,-1.07146 -2.39317,-2.39317 0,-1.32171 1.07146,-2.39317 2.39317,-2.39317 1.32172,0 2.39317,1.07146 2.39317,2.39317 z" />
      </g>
      <path
         inkscape:connector-curvature="0"
         id="path3975"
         d="M 211.84375,308.25 C 90.83319,308.25 -7.25,406.33319 -7.25,527.34375 c 0,121.01056 98.08319,219.125 219.09375,219.125 121.01056,0 219.125,-98.11444 219.125,-219.125 0,-121.01056 -98.11444,-219.09375 -219.125,-219.09375 z m 0,23.75 c 107.9001,0 195.375,87.44365 195.375,195.34375 0,107.9001 -87.4749,195.375 -195.375,195.375 -107.9001,0 -195.375,-87.4749 -195.375,-195.375 C 16.46875,419.44365 103.94365,332 211.84375,332 z"
         style="fill:#32313f;fill-opacity:1;stroke:none" />
      <g
         inkscape:transform-center-x="40.611096"
         transform="matrix(-0.76496086,0,0,-0.76496086,308.09045,922.12027)"
         id="g4079"
         inkscape:transform-center-y="23.446873"
         style="stroke:#0000ff;stroke-width:1.0177201">
        <path
           d="m 170.71875,496.90157 -5.86049,1.57031 -4.29018,-4.29018 1.57031,-5.86049 5.8605,-1.57032 4.29018,4.29018 z"
           inkscape:randomized="0"
           inkscape:rounded="0"
           inkscape:flatsided="true"
           sodipodi:arg2="1.3089969"
           sodipodi:arg1="0.78539816"
           sodipodi:r2="5.2543764"
           sodipodi:r1="6.0672312"
           sodipodi:cy="492.61139"
           sodipodi:cx="166.42857"
           sodipodi:sides="6"
           id="path4081"
           style="fill:none;stroke:#0000ff;stroke-width:0.39217696;stroke-linecap:round;stroke-linejoin:round;stroke-miterlimit:4;stroke-opacity:1;stroke-dasharray:none;stroke-dashoffset:0.8"
           sodipodi:type="star" />
        <path
           d="m 168.82174,492.61139 c 0,1.32171 -1.07145,2.39317 -2.39317,2.39317 -1.32171,0 -2.39317,-1.07146 -2.39317,-2.39317 0,-1.32171 1.07146,-2.39317 2.39317,-2.39317 1.32172,0 2.39317,1.07146 2.39317,2.39317 z"
           sodipodi:ry="2.3931708"
           sodipodi:rx="2.3931708"
           sodipodi:cy="492.61139"
           sodipodi:cx="166.42857"
           id="path4083"
           style="fill:none;stroke:#0000ff;stroke-width:0.39217696;stroke-linecap:round;stroke-linejoin:round;stroke-miterlimit:4;stroke-opacity:1;stroke-dasharray:none;stroke-dashoffset:0.8"
           sodipodi:type="arc" />
      </g>
      <g
         inkscape:transform-center-y="46.89367"
         id="g4085"
         transform="matrix(-0.38248043,0.66247553,-0.66247553,-0.38248043,601.84368,641.38708)"
         inkscape:transform-center-x="-4.5464542e-005"
         style="stroke:#0000ff;stroke-width:1.0177201">
        <path
           sodipodi:type="star"
           style="fill:none;stroke:#0000ff;stroke-width:0.39217696;stroke-linecap:round;stroke-linejoin:round;stroke-miterlimit:4;stroke-opacity:1;stroke-dasharray:none;stroke-dashoffset:0.8"
           id="path4087"
           sodipodi:sides="6"
           sodipodi:cx="166.42857"
           sodipodi:cy="492.61139"
           sodipodi:r1="6.0672312"
           sodipodi:r2="5.2543764"
           sodipodi:arg1="0.78539816"
           sodipodi:arg2="1.3089969"
           inkscape:flatsided="true"
           inkscape:rounded="0"
           inkscape:randomized="0"
           d="m 170.71875,496.90157 -5.86049,1.57031 -4.29018,-4.29018 1.57031,-5.86049 5.8605,-1.57032 4.29018,4.29018 z" />
        <path
           sodipodi:type="arc"
           style="fill:none;stroke:#0000ff;stroke-width:0.39217696;stroke-linecap:round;stroke-linejoin:round;stroke-miterlimit:4;stroke-opacity:1;stroke-dasharray:none;stroke-dashoffset:0.8"
           id="path4089"
           sodipodi:cx="166.42857"
           sodipodi:cy="492.61139"
           sodipodi:rx="2.3931708"
           sodipodi:ry="2.3931708"
           d="m 168.82174,492.61139 c 0,1.32171 -1.07145,2.39317 -2.39317,2.39317 -1.32171,0 -2.39317,-1.07146 -2.39317,-2.39317 0,-1.32171 1.07146,-2.39317 2.39317,-2.39317 1.32172,0 2.39317,1.07146 2.39317,2.39317 z" />
      </g>
      <g
         inkscape:transform-center-x="-40.611129"
         transform="matrix(0.38248043,0.66247553,-0.66247553,0.38248043,505.59822,246.62271)"
         id="g4091"
         inkscape:transform-center-y="23.446799"
         style="stroke:#0000ff;stroke-width:1.0177201">
        <path
           d="m 170.71875,496.90157 -5.86049,1.57031 -4.29018,-4.29018 1.57031,-5.86049 5.8605,-1.57032 4.29018,4.29018 z"
           inkscape:randomized="0"
           inkscape:rounded="0"
           inkscape:flatsided="true"
           sodipodi:arg2="1.3089969"
           sodipodi:arg1="0.78539816"
           sodipodi:r2="5.2543764"
           sodipodi:r1="6.0672312"
           sodipodi:cy="492.61139"
           sodipodi:cx="166.42857"
           sodipodi:sides="6"
           id="path4093"
           style="fill:none;stroke:#0000ff;stroke-width:0.39217696;stroke-linecap:round;stroke-linejoin:round;stroke-miterlimit:4;stroke-opacity:1;stroke-dasharray:none;stroke-dashoffset:0.8"
           sodipodi:type="star" />
        <path
           d="m 168.82174,492.61139 c 0,1.32171 -1.07145,2.39317 -2.39317,2.39317 -1.32171,0 -2.39317,-1.07146 -2.39317,-2.39317 0,-1.32171 1.07146,-2.39317 2.39317,-2.39317 1.32172,0 2.39317,1.07146 2.39317,2.39317 z"
           sodipodi:ry="2.3931708"
           sodipodi:rx="2.3931708"
           sodipodi:cy="492.61139"
           sodipodi:cx="166.42857"
           id="path4095"
           style="fill:none;stroke:#0000ff;stroke-width:0.39217696;stroke-linecap:round;stroke-linejoin:round;stroke-miterlimit:4;stroke-opacity:1;stroke-dasharray:none;stroke-dashoffset:0.8"
           sodipodi:type="arc" />
      </g>
      <g
         inkscape:transform-center-y="-23.446867"
         id="g4097"
         transform="matrix(0.76496086,0,0,0.76496086,115.59955,132.59153)"
         inkscape:transform-center-x="-40.611086"
         style="stroke:#0000ff;stroke-width:1.0177201">
        <path
           sodipodi:type="star"
           style="fill:none;stroke:#0000ff;stroke-width:0.39217696;stroke-linecap:round;stroke-linejoin:round;stroke-miterlimit:4;stroke-opacity:1;stroke-dasharray:none;stroke-dashoffset:0.8"
           id="path4099"
           sodipodi:sides="6"
           sodipodi:cx="166.42857"
           sodipodi:cy="492.61139"
           sodipodi:r1="6.0672312"
           sodipodi:r2="5.2543764"
           sodipodi:arg1="0.78539816"
           sodipodi:arg2="1.3089969"
           inkscape:flatsided="true"
           inkscape:rounded="0"
           inkscape:randomized="0"
           d="m 170.71875,496.90157 -5.86049,1.57031 -4.29018,-4.29018 1.57031,-5.86049 5.8605,-1.57032 4.29018,4.29018 z" />
        <path
           sodipodi:type="arc"
           style="fill:none;stroke:#0000ff;stroke-width:0.39217696;stroke-linecap:round;stroke-linejoin:round;stroke-miterlimit:4;stroke-opacity:1;stroke-dasharray:none;stroke-dashoffset:0.8"
           id="path4101"
           sodipodi:cx="166.42857"
           sodipodi:cy="492.61139"
           sodipodi:rx="2.3931708"
           sodipodi:ry="2.3931708"
           d="m 168.82174,492.61139 c 0,1.32171 -1.07145,2.39317 -2.39317,2.39317 -1.32171,0 -2.39317,-1.07146 -2.39317,-2.39317 0,-1.32171 1.07146,-2.39317 2.39317,-2.39317 1.32172,0 2.39317,1.07146 2.39317,2.39317 z" />
      </g>
      <path
         inkscape:transform-center-y="-48.565185"
         inkscape:transform-center-x="200.05929"
         transform="matrix(0.67857143,0,0,0.67857143,4.2729591,153.89702)"
         d="m 16.071428,478.79074 c 0,2.76142 -2.238576,5 -5,5 -2.7614235,0 -4.9999997,-2.23858 -4.9999997,-5 0,-2.76142 2.2385762,-5 4.9999997,-5 2.761424,0 5,2.23858 5,5 z"
         sodipodi:ry="5"
         sodipodi:rx="5"
         sodipodi:cy="478.79074"
         sodipodi:cx="11.071428"
         id="path4189"
         style="fill:none;stroke:#2c2735;stroke-width:1.47368419;stroke-linecap:round;stroke-linejoin:round;stroke-miterlimit:4;stroke-opacity:1;stroke-dasharray:none;stroke-dashoffset:0.8"
         sodipodi:type="arc" />
      <path
         sodipodi:type="arc"
         style="fill:none;stroke:#2c2735;stroke-width:1.47368419;stroke-linecap:round;stroke-linejoin:round;stroke-miterlimit:4;stroke-opacity:1;stroke-dasharray:none;stroke-dashoffset:0.8"
         id="path4191"
         sodipodi:cx="11.071428"
         sodipodi:cy="478.79074"
         sodipodi:rx="5"
         sodipodi:ry="5"
         d="m 16.071428,478.79074 c 0,2.76142 -2.238576,5 -5,5 -2.7614235,0 -4.9999997,-2.23858 -4.9999997,-5 0,-2.76142 2.2385762,-5 4.9999997,-5 2.761424,0 5,2.23858 5,5 z"
         transform="matrix(0.33928572,-0.5876601,0.5876601,0.33928572,-215.36592,520.38914)"
         inkscape:transform-center-x="142.08833"
         inkscape:transform-center-y="148.97384" />
      <path
         inkscape:transform-center-y="197.53902"
         inkscape:transform-center-x="-57.970964"
         transform="matrix(-0.33928572,-0.5876601,0.5876601,-0.33928572,-7.7938713,893.84804)"
         d="m 16.071428,478.79074 c 0,2.76142 -2.238576,5 -5,5 -2.7614235,0 -4.9999997,-2.23858 -4.9999997,-5 0,-2.76142 2.2385762,-5 4.9999997,-5 2.761424,0 5,2.23858 5,5 z"
         sodipodi:ry="5"
         sodipodi:rx="5"
         sodipodi:cy="478.79074"
         sodipodi:cx="11.071428"
         id="path4193"
         style="fill:none;stroke:#23222c;stroke-width:1.47368419;stroke-linecap:round;stroke-linejoin:round;stroke-miterlimit:4;stroke-opacity:1;stroke-dasharray:none;stroke-dashoffset:0.8"
         sodipodi:type="arc" />
      <path
         sodipodi:type="arc"
         style="fill:none;stroke:#23222c;stroke-width:1.47368419;stroke-linecap:round;stroke-linejoin:round;stroke-miterlimit:4;stroke-opacity:1;stroke-dasharray:none;stroke-dashoffset:0.8"
         id="path4195"
         sodipodi:cx="11.071428"
         sodipodi:cy="478.79074"
         sodipodi:rx="5"
         sodipodi:ry="5"
         d="m 16.071428,478.79074 c 0,2.76142 -2.238576,5 -5,5 -2.7614235,0 -4.9999997,-2.23858 -4.9999997,-5 0,-2.76142 2.2385762,-5 4.9999997,-5 2.761424,0 5,2.23858 5,5 z"
         transform="matrix(-0.67857144,0,0,-0.67857144,419.41705,900.81482)"
         inkscape:transform-center-x="-200.05929"
         inkscape:transform-center-y="48.565175" />
      <path
         inkscape:transform-center-y="-148.97384"
         inkscape:transform-center-x="-142.08832"
         transform="matrix(-0.33928572,0.58766011,-0.58766011,-0.33928572,639.05592,534.32271)"
         d="m 16.071428,478.79074 c 0,2.76142 -2.238576,5 -5,5 -2.7614235,0 -4.9999997,-2.23858 -4.9999997,-5 0,-2.76142 2.2385762,-5 4.9999997,-5 2.761424,0 5,2.23858 5,5 z"
         sodipodi:ry="5"
         sodipodi:rx="5"
         sodipodi:cy="478.79074"
         sodipodi:cx="11.071428"
         id="path4197"
         style="fill:none;stroke:#2c2735;stroke-width:1.47368419;stroke-linecap:round;stroke-linejoin:round;stroke-miterlimit:4;stroke-opacity:1;stroke-dasharray:none;stroke-dashoffset:0.8"
         sodipodi:type="arc" />
      <path
         sodipodi:type="arc"
         style="fill:none;stroke:#2c2735;stroke-width:1.47368419;stroke-linecap:round;stroke-linejoin:round;stroke-miterlimit:4;stroke-opacity:1;stroke-dasharray:none;stroke-dashoffset:0.8"
         id="path4199"
         sodipodi:cx="11.071428"
         sodipodi:cy="478.79074"
         sodipodi:rx="5"
         sodipodi:ry="5"
         d="m 16.071428,478.79074 c 0,2.76142 -2.238576,5 -5,5 -2.7614235,0 -4.9999997,-2.23858 -4.9999997,-5 0,-2.76142 2.2385762,-5 4.9999997,-5 2.761424,0 5,2.23858 5,5 z"
         transform="matrix(0.33928572,0.58766011,-0.58766011,0.33928572,431.48387,160.86381)"
         inkscape:transform-center-x="57.970975"
         inkscape:transform-center-y="-197.53902" />
      <rect
         ry="5.5669641"
         rx="5.5669641"
         y="696.82642"
         x="828.57141"
         height="32.857143"
         width="15.357142"
         id="rect4278"
         style="fill:#343647;fill-opacity:1;stroke:none" />
      <path
         inkscape:connector-curvature="0"
         id="path4272"
         d="m 702.5611,728.10322 -85.35789,-17.67767 5.05076,-18.18275"
         style="fill:#2c2735;fill-opacity:1;stroke:none" />
      <g
         id="g4434">
        <path
           style="fill:#86666b;fill-opacity:1;stroke:none"
           d="m -311.8846,321.51682 c 1.53672,-1.57564 4.74466,-1.29842 5.80838,1.01015 4.44464,0.45746 9.33897,1.02311 10.10152,3.28299 L 55,365.21932 46.428572,420.57647 -302.28815,371.26683 c -2.97891,1.79027 -7.07447,0.33784 -9.09137,0.50507 -1.93613,2.10486 -3.87226,3.17593 -5.80838,1.2627 -5.75128,-10.90425 -7.39891,-40.66033 5.3033,-51.51778 z"
           id="path4386"
           inkscape:connector-curvature="0"
           sodipodi:nodetypes="ccccccccc" />
        <path
           style="fill:#86666b;fill-opacity:1;stroke:none"
           d="M 503.69643,411.19254 55.714286,360.21932 c -6.250561,-0.71121 -9.083998,0.79617 -10,4.28572 -4.472943,17.03988 -8.329031,33.77375 -6.318337,54.23896 0.557791,5.6773 3.578316,8.10598 8.333759,8.83883 l 445.729812,68.69038 c 11.83212,-4.74023 15.47092,-82.26346 10.23691,-85.08067 z"
           id="path4390"
           inkscape:connector-curvature="0"
           sodipodi:nodetypes="csssscc" />
        <path
           inkscape:connector-curvature="0"
           style="fill:#271f1c;fill-opacity:1;stroke:none"
           d="m -308.84375,322.78125 c -8.35571,7.93501 -7.83018,29.93305 -11.125,29.03125 -0.71363,-0.24198 -1.1786,-1.02637 -1.53125,-2.0625 -0.0803,9.29834 1.67255,18.27599 4.3125,23.28125 1.93612,1.91323 3.87637,0.85486 5.8125,-1.25 2.0169,-0.16723 6.11484,1.29027 9.09375,-0.5 L 46.4375,420.5625 51.15625,390.09375 -304.8125,349.28125 c -9.14073,-3.6563 -7.50306,-15.23882 -4.03125,-26.5 z"
           id="path4392" />
        <path
           style="fill:#271f1c;fill-opacity:1;stroke:none"
           d="M 500.3125 185.28125 C 497.50377 200.23313 496.08285 215.83282 497.8125 233.4375 C 498.53378 240.77884 502.25983 244.17665 508.125 245.40625 C 508.51601 245.48822 508.90255 245.56182 509.3125 245.625 L 1124.125 340.375 C 1133.8916 336.46227 1139.5912 296.59364 1141.0625 264.375 L 500.3125 185.28125 z "
           transform="matrix(0.72500002,0,0,0.72500002,-321.5255,249.5)"
           id="path4397" />
      </g>
      <path
         sodipodi:nodetypes="sssssssssssssssssssssssssssssssssss"
         inkscape:connector-curvature="0"
         id="path4270"
         d="M 832.5,771.6479 C 676.23325,723.40972 525.09349,659.88301 370.72598,605.87476 c -42.09142,-14.72644 -83.59166,-32.80191 -127.53175,-40.4061 -25.26829,-4.37288 -52.51662,13.39297 -76.76566,5.05076 -21.64809,-7.44742 -31.55001,-33.28377 -48.85817,-48.26814 -3.45741,-2.99322 -8.177,-4.96696 -12.74897,-5.06767 -5.101521,-0.11237 -10.62582,4.31021 -15.714287,3.92858 C 83.9828,520.72787 78.787607,519.50922 76.25,515.04075 c -3.781886,-6.65952 -0.844059,-14.78693 6.25,-16.78571 2.126802,-0.59923 4.654318,-0.49814 6.607143,0.53571 0.804726,0.42603 0.175299,2.10976 -0.535714,2.67857 -1.60542,1.28434 -4.608116,0.58843 -5.714286,2.32143 -1.090763,1.70886 -1.173917,4.74258 0.357143,6.07143 2.355236,2.04417 6.029045,2.64394 9.107143,2.14286 2.561546,-0.41699 4.191997,-3.06171 6.25,-4.64286 2.823421,-2.16921 5.071631,-5.32394 8.392861,-6.60714 4.7831,-1.84801 11.08077,0.58241 15.17857,-2.5 3.63051,-2.73091 5.45033,-8.15799 5,-12.67857 -1.16547,-11.69951 -8.94008,-22.19217 -9.64286,-33.92857 -0.52643,-8.79136 1.36625,-18.26939 6.07143,-25.71429 5.18766,-8.20833 13.19732,-15.15156 22.14286,-18.92857 13.18491,-5.56696 27.83234,-8.00912 42.14285,-8.21429 19.29769,-0.27667 39.17563,0.72808 57.5,6.78572 11.46142,3.7889 20.64551,13.00443 28.92857,21.78571 7.79414,8.26295 10.7085,20.37391 18.57143,28.57143 14.73049,15.35731 30.30381,30.51396 48.57143,41.42857 20.07828,11.99645 43.38346,17.49674 65,26.42857 46.9554,19.40171 94.14485,38.26077 140.71429,58.57143 29.87602,13.03004 59.46769,26.75442 88.57143,41.42857 55.91551,28.19269 110.18712,59.60614 166.42857,87.14286 11.11771,5.44341 23.08349,9.46077 35.2736,11.61377 13.77677,2.43323 28.57889,-2.18677 41.92133,2.0203 6.70735,2.11493 14.71051,8.64749 14.14214,15.65737 -0.74585,9.19889 -8.96868,17.49081 -17.1726,21.71828 -13.29511,6.85095 -29.51628,14.11609 -43.80733,9.70457 z"
         style="fill:#343647;fill-opacity:1;stroke:none" />
      <path
         d="m 738.74998,705.2193 c 0,4.93111 -3.99745,8.92857 -8.92857,8.92857 -4.93111,0 -8.92857,-3.99746 -8.92857,-8.92857 0,-4.93111 3.99746,-8.92857 8.92857,-8.92857 4.93112,0 8.92857,3.99746 8.92857,8.92857 z"
         sodipodi:ry="8.9285717"
         sodipodi:rx="8.9285717"
         sodipodi:cy="705.2193"
         sodipodi:cx="729.82141"
         id="path4280"
         style="fill:#dadff2;fill-opacity:1;stroke:none"
         sodipodi:type="arc" />
      <path
         d="m 824.64283,732.7193 c 0,3.74765 -3.03807,6.78571 -6.78571,6.78571 -3.74765,0 -6.78572,-3.03806 -6.78572,-6.78571 0,-3.74765 3.03807,-6.78571 6.78572,-6.78571 3.74764,0 6.78571,3.03806 6.78571,6.78571 z"
         sodipodi:ry="6.7857141"
         sodipodi:rx="6.7857141"
         sodipodi:cy="732.7193"
         sodipodi:cx="817.85712"
         id="path4282"
         style="fill:#dadff2;fill-opacity:1;stroke:none"
         sodipodi:type="arc" />
      <path
         transform="matrix(0.76315789,0,0,0.76315789,193.70301,173.53879)"
         sodipodi:type="arc"
         style="fill:#2c2735;fill-opacity:1;stroke:none"
         id="path4284"
         sodipodi:cx="817.85712"
         sodipodi:cy="732.7193"
         sodipodi:rx="6.7857141"
         sodipodi:ry="6.7857141"
         d="m 824.64283,732.7193 c 0,3.74765 -3.03807,6.78571 -6.78571,6.78571 -3.74765,0 -6.78572,-3.03806 -6.78572,-6.78571 0,-3.74765 3.03807,-6.78571 6.78572,-6.78571 3.74764,0 6.78571,3.03806 6.78571,6.78571 z" />
      <path
         transform="matrix(0.68000001,0,0,0.68000001,233.54284,225.67017)"
         sodipodi:type="arc"
         style="fill:#2c2735;fill-opacity:1;stroke:none"
         id="path4286"
         sodipodi:cx="729.82141"
         sodipodi:cy="705.2193"
         sodipodi:rx="8.9285717"
         sodipodi:ry="8.9285717"
         d="m 738.74998,705.2193 c 0,4.93111 -3.99745,8.92857 -8.92857,8.92857 -4.93111,0 -8.92857,-3.99746 -8.92857,-8.92857 0,-4.93111 3.99746,-8.92857 8.92857,-8.92857 4.93112,0 8.92857,3.99746 8.92857,8.92857 z" />
      <path
         sodipodi:nodetypes="ssscsscssscsscs"
         inkscape:connector-curvature="0"
         id="path4288"
         d="m 729.8125,700.40625 c -2.6628,0 -4.8125,2.1497 -4.8125,4.8125 0,2.6628 2.1497,4.8125 4.8125,4.8125 0.31151,0 0.61119,-0.0373 0.90625,-0.0937 4.34375,1.10417 8.7326,2.04405 13.03125,3.3125 l 64.8125,19.125 c 2.10103,0.61998 3.97917,1.83333 5.96875,2.75 0.74623,1.03033 1.94306,1.6875 3.3125,1.6875 2.26831,0 4.125,-1.82544 4.125,-4.09375 0,-2.26831 -1.85669,-4.09375 -4.125,-4.09375 -0.96127,0 -1.83151,0.32179 -2.53125,0.875 -2.07292,0 -4.24245,0.62546 -6.21875,0 l -64.28125,-20.3438 c -3.88644,-1.22998 -7.10417,-4 -10.65625,-6 -0.77475,-1.62644 -2.42223,-2.75 -4.34375,-2.75 z"
         style="fill:#dadff2;fill-opacity:1;stroke:none" />
      <path
         d="m 628.57141,677.89789 c 0,2.07107 -1.67893,3.75 -3.75,3.75 -2.07107,0 -3.75,-1.67893 -3.75,-3.75 0,-2.07107 1.67893,-3.75 3.75,-3.75 2.07107,0 3.75,1.67893 3.75,3.75 z"
         sodipodi:ry="3.75"
         sodipodi:rx="3.75"
         sodipodi:cy="677.89789"
         sodipodi:cx="624.82141"
         id="path4296"
         style="fill:#2c2735;fill-opacity:1;stroke:none"
         sodipodi:type="arc" />
      <path
         transform="translate(6.6071429,-19.464286)"
         sodipodi:type="arc"
         style="fill:#2c2735;fill-opacity:1;stroke:none"
         id="path4298"
         sodipodi:cx="624.82141"
         sodipodi:cy="677.89789"
         sodipodi:rx="3.75"
         sodipodi:ry="3.75"
         d="m 628.57141,677.89789 c 0,2.07107 -1.67893,3.75 -3.75,3.75 -2.07107,0 -3.75,-1.67893 -3.75,-3.75 0,-2.07107 1.67893,-3.75 3.75,-3.75 2.07107,0 3.75,1.67893 3.75,3.75 z" />
      <path
         d="m 628.57141,677.89789 c 0,2.07107 -1.67893,3.75 -3.75,3.75 -2.07107,0 -3.75,-1.67893 -3.75,-3.75 0,-2.07107 1.67893,-3.75 3.75,-3.75 2.07107,0 3.75,1.67893 3.75,3.75 z"
         sodipodi:ry="3.75"
         sodipodi:rx="3.75"
         sodipodi:cy="677.89789"
         sodipodi:cx="624.82141"
         id="path4300"
         style="fill:#2c2735;fill-opacity:1;stroke:none"
         sodipodi:type="arc"
         transform="translate(14.107143,-38.928572)" />
      <path
         inkscape:connector-curvature="0"
         id="path4302"
         d="m 638.9375,635.21875 c -2.07107,0 -3.75,1.67893 -3.75,3.75 0,0.6092 0.14847,1.17891 0.40625,1.6875 0.42455,0.16678 0.89127,0.28125 1.375,0.28125 2.07107,0 3.75,-1.67893 3.75,-3.75 0,-0.61913 -0.17179,-1.20408 -0.4375,-1.71875 -0.42352,-0.16586 -0.86144,-0.25 -1.34375,-0.25 z"
         style="fill:#dadff2;fill-opacity:1;stroke:none" />
      <path
         inkscape:connector-curvature="0"
         id="path4304"
         d="m 631.4375,654.6875 c -2.07107,0 -3.75,1.67893 -3.75,3.75 0,0.6092 0.14847,1.17891 0.40625,1.6875 0.52131,0.27462 1.08859,0.4375 1.71875,0.4375 2.07107,0 3.75,-1.67893 3.75,-3.75 0,-0.6251 -0.13574,-1.20048 -0.40625,-1.71875 -0.51827,-0.27051 -1.09365,-0.40625 -1.71875,-0.40625 z"
         style="fill:#dadff2;fill-opacity:1;stroke:none" />
      <path
         inkscape:connector-curvature="0"
         id="path4306"
         d="m 624.8125,674.15625 c -2.07107,0 -3.75,1.67893 -3.75,3.75 0,0.76698 0.26109,1.46844 0.65625,2.0625 0.005,0.007 -0.005,0.0238 0,0.0312 0.50331,0.25107 1.08682,0.40625 1.6875,0.40625 2.07107,0 3.75,-1.67893 3.75,-3.75 0,-0.77665 -0.25191,-1.49525 -0.65625,-2.09375 -0.50859,-0.25778 -1.0783,-0.40625 -1.6875,-0.40625 z"
         style="fill:#dadff2;fill-opacity:1;stroke:none" />
      <path
         transform="translate(-44.79233,-60.681471)"
         sodipodi:type="arc"
         style="fill:#2c2735;fill-opacity:1;stroke:none"
         id="path4328"
         sodipodi:cx="624.82141"
         sodipodi:cy="677.89789"
         sodipodi:rx="3.75"
         sodipodi:ry="3.75"
         d="m 628.57141,677.89789 c 0,2.07107 -1.67893,3.75 -3.75,3.75 -2.07107,0 -3.75,-1.67893 -3.75,-3.75 0,-2.07107 1.67893,-3.75 3.75,-3.75 2.07107,0 3.75,1.67893 3.75,3.75 z" />
      <path
         inkscape:connector-curvature="0"
         style="fill:#dadff2;fill-opacity:1;stroke:none"
         d="m 580.03803,613.46585 c -2.07107,0 -3.75,1.67893 -3.75,3.75 0,0.6092 0.14847,1.17891 0.40625,1.6875 0.42455,0.16678 0.89127,0.28125 1.375,0.28125 2.07107,0 3.75,-1.67893 3.75,-3.75 0,-0.61913 -0.17179,-1.20408 -0.4375,-1.71875 -0.42352,-0.16586 -0.86144,-0.25 -1.34375,-0.25 z"
         id="path4330" />
      <path
         transform="matrix(0.71430471,0,0,0.71430724,311.36567,150.81329)"
         sodipodi:type="arc"
         style="fill:#2c2735;fill-opacity:1;stroke:none"
         id="path4360"
         sodipodi:cx="624.82141"
         sodipodi:cy="677.89789"
         sodipodi:rx="3.75"
         sodipodi:ry="3.75"
         d="m 628.57141,677.89789 c 0,2.07107 -1.67893,3.75 -3.75,3.75 -2.07107,0 -3.75,-1.67893 -3.75,-3.75 0,-2.07107 1.67893,-3.75 3.75,-3.75 2.07107,0 3.75,1.67893 3.75,3.75 z" />
      <path
         inkscape:connector-curvature="0"
         style="fill:#dadff2;fill-opacity:1;stroke:none"
         d="m 757.68494,632.36161 c -1.47938,0 -2.67864,1.19927 -2.67864,2.67865 0,0.43515 0.10605,0.8421 0.29018,1.20539 0.30326,0.11913 0.63664,0.2009 0.98217,0.2009 1.47938,0 2.67865,-1.19927 2.67865,-2.67865 0,-0.44225 -0.12272,-0.86008 -0.31251,-1.22772 -0.30253,-0.11847 -0.61533,-0.17857 -0.95985,-0.17857 z"
         id="path4362" />
      <path
         inkscape:connector-curvature="0"
         id="path4364"
         d="m 726.0625,602.59375 -3.90625,6.84375 c 9.67334,5.65802 63.75,35.0625 63.75,35.0625 l 2.5,3.40625 c 4.96599,-1.99362 9.25497,-1.4844 14.28125,-0.25 -0.48815,-0.603 -0.99356,-1.15894 -1.625,-1.625 -5.5299,-4.0815 -9.92687,-1.62148 -13.65625,-3.78125 -21.47767,-12.43825 -40.55144,-26.10337 -61.34375,-39.65625 z"
         style="fill:#dadff2;fill-opacity:1;stroke:none" />
      <path
         d="m 803.21429,655.75507 c 0,3.15591 -2.55838,5.71428 -5.71429,5.71428 -3.15591,0 -5.71429,-2.55837 -5.71429,-5.71428 0,-3.15592 2.55838,-5.71429 5.71429,-5.71429 3.15591,0 5.71429,2.55837 5.71429,5.71429 z"
         sodipodi:ry="5.7142859"
         sodipodi:rx="5.7142859"
         sodipodi:cy="655.75507"
         sodipodi:cx="797.5"
         id="path4369"
         style="fill:#dadff2;fill-opacity:1;stroke:none"
         sodipodi:type="arc" />
      <path
         inkscape:connector-curvature="0"
         id="path4371"
         d="m 798.40625,652.1875 c -3.15591,0 -5.71875,2.56284 -5.71875,5.71875 0,0.36369 0.0288,0.71769 0.0937,1.0625 1.02991,1.49985 2.76186,2.5 4.71875,2.5 3.15591,0 5.71875,-2.56284 5.71875,-5.71875 0,-0.36073 -0.0298,-0.72032 -0.0937,-1.0625 -0.002,-0.0118 -0.029,-0.0195 -0.0312,-0.0312 -1.03,-1.49928 -2.73105,-2.46875 -4.6875,-2.46875 z"
         style="fill:#2c2735;fill-opacity:1;stroke:none" />
      <path
         inkscape:connector-curvature="0"
         id="path4376"
         d="m 216.42518,540.71992 331.25339,74.32083 -4.10714,16.42857 -334.28572,-75.17857"
         style="fill:#2c2735;fill-opacity:1;stroke:none" />
      <path
         id="path3813"
         d="m 163.03795,278.0625 0,1.65625 -5,1.21875 c -1.42857,70.35714 5.46765,163.16145 -5.71875,210.34375 l 11.4375,4.875 0,2.28125 2.6875,-1.125 2.65625,1.125 0,-2.28125 11.4375,-4.875 c -11.1864,-47.1823 -4.29018,-139.98661 -5.71875,-210.34375 l -5,-1.21875 0,-1.65625 -3.375,0.8125 -3.40625,-0.8125 z"
         style="fill:#2c2735;fill-opacity:1;stroke:none"
         inkscape:connector-curvature="0" />
      <path
         id="path3815"
         d="m 160.10045,280.4375 -2.0625,0.5 c -1.42857,70.35714 5.46765,163.16145 -5.71875,210.34375 l 2.96875,1.28125 2.03125,-0.1875 c 14.62403,-43.97058 1.93769,-140.49081 2.78125,-211.9375 z"
         style="fill:#dadff2;fill-opacity:1;stroke:none"
         inkscape:connector-curvature="0" />
      <path
         inkscape:connector-curvature="0"
         style="fill:#2c2735;fill-opacity:1;stroke:none"
         d="m 32.770933,314.78447 0.828125,1.43436 -3.720752,3.55547 C 63.819698,381.41965 116.19416,458.34243 130.0976,504.7967 l 12.34266,-1.49688 1.14063,1.97563 1.76494,-2.31803 2.86288,-0.35385 -1.14062,-1.97562 7.46766,-9.94062 C 121.2569,455.41946 80.827043,371.60046 44.411295,311.38367 l -4.939502,1.44453 -0.828125,-1.43435 -2.516586,2.39114 -3.356149,0.99948 z"
         id="path3829" />
      <path
         inkscape:connector-curvature="0"
         style="fill:#dadff2;fill-opacity:1;stroke:none"
         d="m 31.414484,318.31003 -1.536178,1.46427 C 63.819698,381.41965 116.19416,458.34243 130.0976,504.7967 l 3.21164,-0.37478 1.66536,-1.178 C 125.65409,457.85226 66.407284,380.60646 31.414484,318.31003 z"
         id="path3831" />
      <path
         id="path3835"
         d="m -61.682617,411.72014 1.434354,0.82812 -1.444531,4.9395 c 60.2167851,36.41575 144.035785,76.8456 179.303654,110.12446 l 9.94062,-7.46766 1.97563,1.14062 0.36947,-2.88994 2.3024,-1.73788 -1.97562,-1.14063 1.49688,-12.34266 C 85.265966,489.27062 8.3431861,436.89617 -53.302169,402.95478 l -3.555469,3.72075 -1.434354,-0.82813 -0.983855,3.32909 -2.40677,2.54365 z"
         style="fill:#2c2735;fill-opacity:1;stroke:none"
         inkscape:connector-curvature="0" />
      <path
         style="fill:#dadff2;fill-opacity:1;stroke:none"
         d="M 18.968748,453.34375 C 80.522388,490.39314 104.28943,506.95981 128.375,502.125 l 0,-0.0312 C 112.47452,496.88324 93.335097,487.60059 72.624998,476.2813 l -53.65625,-22.9375 z"
         id="path3837"
         inkscape:connector-curvature="0" />
      <path
         inkscape:connector-curvature="0"
         style="fill:#2c2735;fill-opacity:1;stroke:none"
         d="m -95.01396,542.89566 1.65625,0 1.21875,5 c 70.35714,1.42857 163.16145,-5.46765 210.34375,5.71875 l 4.875,-11.4375 2.28125,0 -1.125,-2.6875 1.125,-2.65625 -2.28125,0 -4.875,-11.4375 c -47.1823,11.1864 -139.98661,4.29018 -210.34375,5.71875 l -1.21875,5 -1.65625,0 0.8125,3.375 -0.8125,3.40625 z"
         id="path3841" />
      <path
         style="fill:#dadff2;fill-opacity:1;stroke:none"
         d="m 112.59375,526.59375 c -19.067348,3.71266 -44.28363,4.97757 -71.9375,5.25 L -26.21875,539 c 53.43094,0.63085 56.23892,-3.26592 105.25,-0.6875 15.234194,0.80145 28.44022,-6.70277 33.5625,-11.71875 z"
         id="path3843"
         inkscape:connector-curvature="0" />
      <path
         id="path3847"
         d="m -58.291987,673.16267 1.434354,-0.82813 3.555469,3.72075 C 8.3431911,642.1139 85.265971,589.73944 131.72024,575.836 l -1.49688,-12.34266 1.97563,-1.14063 -2.31803,-1.76494 -0.35385,-2.86288 -1.97562,1.14062 -9.94062,-7.46766 C 82.342996,584.6767 -1.4760039,625.10656 -61.692789,661.5223 l 1.444531,4.93951 -1.434354,0.82812 2.391145,2.51659 0.99948,3.35615 z"
         style="fill:#dadff2;fill-opacity:1;stroke:none"
         inkscape:connector-curvature="0" />
      <path
         id="path3849"
         d="m -57.544342,662.39729 4.242178,13.658 C 8.3431911,642.1139 85.265971,589.73944 131.72024,575.836 l -0.37478,-3.21164 -17.34044,-17.07019 c -0.80375,25.1933 -167.194446,107.67397 -171.549362,106.84312 z"
         style="fill:#2c2735;fill-opacity:1;stroke:none"
         inkscape:connector-curvature="0"
         sodipodi:nodetypes="cccccc" />
      <path
         inkscape:connector-curvature="0"
         style="fill:#dadff2;fill-opacity:1;stroke:none"
         d="m 38.643676,767.61624 0.828125,-1.43436 4.939502,1.44453 C 80.827051,707.40963 121.2569,623.59063 154.53576,588.32276 l -7.46767,-9.94062 1.14063,-1.97563 -2.88994,-0.36947 -1.73788,-2.3024 -1.14063,1.97562 -12.34266,-1.49688 C 116.19416,620.66765 63.819706,697.59043 29.878314,759.23579 l 3.720752,3.55547 -0.828125,1.43435 3.329086,0.98386 2.543649,2.40677 z"
         id="path3853" />
      <path
         inkscape:connector-curvature="0"
         style="fill:#2c2735;fill-opacity:1;stroke:none"
         d="m 33.267982,762.02817 11.143321,5.59824 C 80.827051,707.40963 121.2569,623.59063 154.53576,588.32276 l -1.93039,-2.59397 -23.46001,-6.21039 c 3.67839,12.56747 -1.54106,31.29129 -13.85628,50.23705 -25.321859,38.95516 -52.709546,90.92784 -82.021098,132.27272 z"
         id="path3855"
         sodipodi:nodetypes="cccccsc" />
      <path
         id="path3859"
         d="m 169.8192,800.9476 0,-1.65625 5,-1.21875 c 1.42857,-70.35714 -5.46765,-163.16145 5.71875,-210.34375 l -11.4375,-4.875 0,-2.28125 -2.6875,1.125 -2.65625,-1.125 0,2.28125 -11.4375,4.875 c 11.1864,47.1823 4.29018,139.98661 5.71875,210.34375 l 5,1.21875 0,1.65625 3.375,-0.8125 3.40625,0.8125 z"
         style="fill:#dadff2;fill-opacity:1;stroke:none"
         inkscape:connector-curvature="0" />
      <path
         id="path3861"
         d="m 172.7567,798.5726 2.0625,-0.5 c 1.42857,-70.35714 -5.46765,-163.16145 5.71875,-210.34375 l -2.96875,-1.28125 -2.03125,0.1875 c -14.62403,43.97058 -1.93769,140.49081 -2.78125,211.9375 z"
         style="fill:#2c2735;fill-opacity:1;stroke:none"
         inkscape:connector-curvature="0" />
      <path
         inkscape:connector-curvature="0"
         style="fill:#dadff2;fill-opacity:1;stroke:none"
         d="m 300.08623,764.22563 -0.82813,-1.43436 3.72075,-3.55547 C 269.03746,697.59045 216.663,620.66767 202.75956,574.2134 l -12.34266,1.49688 -1.14063,-1.97563 -1.76494,2.31803 -2.86288,0.35385 1.14062,1.97562 -7.46766,9.94062 c 33.27885,35.26787 73.70871,119.08687 110.12446,179.30366 l 4.9395,-1.44453 0.82812,1.43435 2.51659,-2.39114 3.35615,-0.99948 z"
         id="path3865" />
      <path
         inkscape:connector-curvature="0"
         style="fill:#2c2735;fill-opacity:1;stroke:none"
         d="m 301.44268,760.70007 1.53617,-1.46427 C 269.03746,697.59045 216.663,620.66767 202.75956,574.2134 l -3.21164,0.37478 -1.66536,1.178 c 9.32051,45.39166 68.56732,122.63746 103.56012,184.93389 z"
         id="path3867" />
      <g
         inkscape:transform-center-y="74.22155"
         transform="matrix(-0.5,0.8660254,-0.8660254,-0.5,716.95835,664.96962)"
         id="g3869"
         inkscape:transform-center-x="-131.1755">
        <path
           inkscape:connector-curvature="0"
           style="fill:#2c2735;fill-opacity:1;stroke:none"
           d="m 163.21875,278.0625 0,1.65625 -5,1.21875 c -1.42857,70.35714 5.46765,163.16145 -5.71875,210.34375 l 11.4375,4.875 0,2.28125 2.6875,-1.125 2.65625,1.125 0,-2.28125 11.4375,-4.875 C 169.53235,444.09895 176.42857,351.29464 175,280.9375 l -5,-1.21875 0,-1.65625 -3.375,0.8125 -3.40625,-0.8125 z"
           id="path3871" />
        <path
           inkscape:connector-curvature="0"
           id="path3873"
           transform="matrix(-0.5,-0.86602541,0.86602541,-0.5,-217.40141,953.38896)"
           d="m 244.71875,578.5625 c -3.91674,-0.13285 -5.73719,3.24612 -4,6.625 33.80678,24.13046 139.72541,75.96599 143.9375,90.03125 0.24561,0.13586 0.50486,0.27096 0.75,0.40625 l 9.15625,-14.09375 c -36.12684,-21.8475 -80.71354,-45.14263 -118.25,-67.46875 -9.28384,-4.71227 -18.70682,-9.54418 -28.5625,-14.8125 -1.11077,-0.44742 -2.12739,-0.65684 -3.03125,-0.6875 z"
           style="fill:#dadff2;fill-opacity:1;stroke:none" />
      </g>
      <g
         inkscape:transform-center-x="-151.25506"
         id="g3875"
         transform="matrix(0,1,-1,0,705.93364,372.89567)">
        <path
           id="path3877"
           d="m 163.21875,278.0625 0,1.65625 -5,1.21875 c -1.42857,70.35714 5.46765,163.16145 -5.71875,210.34375 l 11.4375,4.875 0,2.28125 2.6875,-1.125 2.65625,1.125 0,-2.28125 11.4375,-4.875 C 169.53235,444.09895 176.42857,351.29464 175,280.9375 l -5,-1.21875 0,-1.65625 -3.375,0.8125 -3.40625,-0.8125 z"
           style="fill:#2c2735;fill-opacity:1;stroke:none"
           inkscape:connector-curvature="0" />
        <path
           sodipodi:nodetypes="cccccsc"
           id="path3879"
           d="m 160.53794,281.86607 -2.31919,-0.92857 c -1.42857,70.35714 5.46765,163.16145 -5.71875,210.34375 l 2.96875,1.28125 2.03125,-0.1875 c 11.38437,-34.22978 7.42945,-100.84852 6.71508,-161.78644 -0.3079,-26.26409 -4.04258,-42.89491 -3.67714,-48.72249 z"
           style="fill:#dadff2;fill-opacity:1;stroke:none"
           inkscape:connector-curvature="0" />
      </g>
      <g
         inkscape:transform-center-y="-74.221555"
         transform="matrix(0.5,0.8660254,-0.8660254,0.5,550.34898,125.46456)"
         id="g3881"
         inkscape:transform-center-x="-131.1755">
        <path
           inkscape:connector-curvature="0"
           style="fill:#2c2735;fill-opacity:1;stroke:none"
           d="m 163.21875,278.0625 0,1.65625 -5,1.21875 c -1.42857,70.35714 5.46765,163.16145 -5.71875,210.34375 l 11.4375,4.875 0,2.28125 2.6875,-1.125 2.65625,1.125 0,-2.28125 11.4375,-4.875 C 169.53235,444.09895 176.42857,351.29464 175,280.9375 l -5,-1.21875 0,-1.65625 -3.375,0.8125 -3.40625,-0.8125 z"
           id="path3883" />
        <path
           inkscape:connector-curvature="0"
           style="fill:#dadff2;fill-opacity:1;stroke:none"
           d="m 160.28125,280.4375 -2.0625,0.5 c -1.42857,70.35714 5.46765,163.16145 -5.71875,210.34375 l 2.96875,1.28125 2.03125,-0.1875 c 14.62403,-43.97058 1.93769,-140.49081 2.78125,-211.9375 z"
           id="path3885" />
      </g>
      <g
         style="stroke:none"
         inkscape:transform-center-x="-74.22155"
         id="g3887"
         transform="matrix(0.8660254,0.5,-0.5,0.8660254,291.89316,-11.024732)"
         inkscape:transform-center-y="-131.1755">
        <path
           id="path3889"
           d="m 163.21875,278.0625 0,1.65625 -5,1.21875 c -1.42857,70.35714 5.46765,163.16145 -5.71875,210.34375 l 11.4375,4.875 0,2.28125 2.6875,-1.125 2.65625,1.125 0,-2.28125 11.4375,-4.875 C 169.53235,444.09895 176.42857,351.29464 175,280.9375 l -5,-1.21875 0,-1.65625 -3.375,0.8125 -3.40625,-0.8125 z"
           style="fill:#2c2735;fill-opacity:1;stroke:none"
           inkscape:connector-curvature="0" />
        <path
           id="path3891"
           d="m 160.28125,280.4375 -2.0625,0.5 c -1.42857,70.35714 5.46765,163.16145 -5.71875,210.34375 l 2.96875,1.28125 2.03125,-0.1875 c 14.62403,-43.97058 1.93769,-140.49081 2.78125,-211.9375 z"
           style="fill:#dadff2;fill-opacity:1;stroke:none"
           inkscape:connector-curvature="0" />
      </g>
      <path
         d="m 456.42857,539.50507 c 0,160.16257 -129.83742,290 -290,290 -160.1625738,0 -290,-129.83743 -290,-290 0,-160.16258 129.8374262,-290 290,-290 160.16258,0 290,129.83742 290,290 z"
         sodipodi:ry="290"
         sodipodi:rx="290"
         sodipodi:cy="539.50507"
         sodipodi:cx="166.42857"
         id="path3902"
         style="fill:#dadff2;fill-opacity:1;stroke:none"
         sodipodi:type="arc"
         transform="matrix(0.19773594,0,0,0.19773594,133.51966,432.82552)" />
      <path
         transform="matrix(0.19251689,0,0,0.19208158,135.90349,437.51757)"
         sodipodi:type="arc"
         style="fill:#343647;fill-opacity:1;stroke:none"
         id="path3904"
         sodipodi:cx="166.42857"
         sodipodi:cy="539.50507"
         sodipodi:rx="290"
         sodipodi:ry="290"
         d="m 456.42857,539.50507 c 0,160.16257 -129.83742,290 -290,290 -160.1625738,0 -290,-129.83743 -290,-290 0,-160.16258 129.8374262,-290 290,-290 160.16258,0 290,129.83742 290,290 z" />
      <path
         transform="matrix(0.1020499,0,0,0.1020499,149.44455,484.44862)"
         sodipodi:type="arc"
         style="fill:#dadff2;fill-opacity:1;stroke:none"
         id="path3906"
         sodipodi:cx="166.42857"
         sodipodi:cy="539.50507"
         sodipodi:rx="290"
         sodipodi:ry="290"
         d="m 456.42857,539.50507 c 0,160.16257 -129.83742,290 -290,290 -160.1625738,0 -290,-129.83743 -290,-290 0,-160.16258 129.8374262,-290 290,-290 160.16258,0 290,129.83742 290,290 z" />
      <path
         inkscape:connector-curvature="0"
         id="path3908"
         d="m 182.84375,523.28125 c -16.34458,0 -29.59375,13.24917 -29.59375,29.59375 0,5.36582 1.44075,10.41056 3.9375,14.75 2.9083,0.95535 6.02207,1.46875 9.25,1.46875 16.34458,0 29.59375,-13.24917 29.59375,-29.59375 0,-5.36306 -1.44314,-10.38083 -3.9375,-14.71875 -2.9083,-0.95535 -6.02207,-1.5 -9.25,-1.5 z"
         style="fill:#2c2735;fill-opacity:1;stroke:none" />
      <path
         d="m 456.42857,539.50507 c 0,160.16257 -129.83742,290 -290,290 -160.1625738,0 -290,-129.83743 -290,-290 0,-160.16258 129.8374262,-290 290,-290 160.16258,0 290,129.83742 290,290 z"
         sodipodi:ry="290"
         sodipodi:rx="290"
         sodipodi:cy="539.50507"
         sodipodi:cx="166.42857"
         id="path3913"
         style="fill:#2c2735;fill-opacity:1;stroke:none"
         sodipodi:type="arc"
         transform="matrix(0.07598032,0,0,0.07598032,153.78327,498.51329)" />
      <path
         transform="matrix(0.07075539,0,0,0.07075539,154.65285,501.33216)"
         sodipodi:type="arc"
         style="fill:#dadff2;fill-opacity:1;stroke:none"
         id="path3915"
         sodipodi:cx="166.42857"
         sodipodi:cy="539.50507"
         sodipodi:rx="290"
         sodipodi:ry="290"
         d="m 456.42857,539.50507 c 0,160.16257 -129.83742,290 -290,290 -160.1625738,0 -290,-129.83743 -290,-290 0,-160.16258 129.8374262,-290 290,-290 160.16258,0 290,129.83742 290,290 z" />
      <path
         d="m 456.42857,539.50507 c 0,160.16257 -129.83742,290 -290,290 -160.1625738,0 -290,-129.83743 -290,-290 0,-160.16258 129.8374262,-290 290,-290 160.16258,0 290,129.83742 290,290 z"
         sodipodi:ry="290"
         sodipodi:rx="290"
         sodipodi:cy="539.50507"
         sodipodi:cx="166.42857"
         id="path3917"
         style="fill:#2c2735;fill-opacity:1;stroke:none"
         sodipodi:type="arc"
         transform="matrix(0.04550158,0,0,0.04550158,158.85581,514.95672)" />
      <path
         d="m 170.71875,496.90157 -5.86049,1.57031 -4.29018,-4.29018 1.57031,-5.86049 5.8605,-1.57032 4.29018,4.29018 z"
         inkscape:randomized="0"
         inkscape:rounded="0"
         inkscape:flatsided="true"
         sodipodi:arg2="1.3089969"
         sodipodi:arg1="0.78539816"
         sodipodi:r2="5.2543764"
         sodipodi:r1="6.0672312"
         sodipodi:cy="492.61139"
         sodipodi:cx="166.42857"
         sodipodi:sides="6"
         id="path3928"
         style="fill:#dadff2;fill-opacity:1;stroke:none"
         sodipodi:type="star" />
      <path
         d="m 168.82174,492.61139 c 0,1.32171 -1.07145,2.39317 -2.39317,2.39317 -1.32171,0 -2.39317,-1.07146 -2.39317,-2.39317 0,-1.32171 1.07146,-2.39317 2.39317,-2.39317 1.32172,0 2.39317,1.07146 2.39317,2.39317 z"
         sodipodi:ry="2.3931708"
         sodipodi:rx="2.3931708"
         sodipodi:cy="492.61139"
         sodipodi:cx="166.42857"
         id="path3930"
         style="fill:#343647;fill-opacity:1;stroke:none"
         sodipodi:type="arc" />
      <path
         transform="matrix(-0.5,-0.8660254,0.8660254,-0.5,-217.58221,906.49528)"
         sodipodi:type="star"
         style="fill:#dadff2;fill-opacity:1;stroke:none"
         id="path3938"
         sodipodi:sides="6"
         sodipodi:cx="166.42857"
         sodipodi:cy="492.61139"
         sodipodi:r1="6.0672312"
         sodipodi:r2="5.2543764"
         sodipodi:arg1="0.78539816"
         sodipodi:arg2="1.3089969"
         inkscape:flatsided="true"
         inkscape:rounded="0"
         inkscape:randomized="0"
         d="m 170.71875,496.90157 -5.86049,1.57031 -4.29018,-4.29018 1.57031,-5.86049 5.8605,-1.57032 4.29018,4.29018 z" />
      <path
         transform="matrix(-0.5,-0.8660254,0.8660254,-0.5,-217.58221,906.49528)"
         sodipodi:type="arc"
         style="fill:#343647;fill-opacity:1;stroke:none"
         id="path3940"
         sodipodi:cx="166.42857"
         sodipodi:cy="492.61139"
         sodipodi:rx="2.3931708"
         sodipodi:ry="2.3931708"
         d="m 168.82174,492.61139 c 0,1.32171 -1.07145,2.39317 -2.39317,2.39317 -1.32171,0 -2.39317,-1.07146 -2.39317,-2.39317 0,-1.32171 1.07146,-2.39317 2.39317,-2.39317 1.32172,0 2.39317,1.07146 2.39317,2.39317 z" />
      <path
         transform="matrix(-1,0,0,-1,292.24605,1055.5633)"
         d="m 170.71875,496.90157 -5.86049,1.57031 -4.29018,-4.29018 1.57031,-5.86049 5.8605,-1.57032 4.29018,4.29018 z"
         inkscape:randomized="0"
         inkscape:rounded="0"
         inkscape:flatsided="true"
         sodipodi:arg2="1.3089969"
         sodipodi:arg1="0.78539816"
         sodipodi:r2="5.2543764"
         sodipodi:r1="6.0672312"
         sodipodi:cy="492.61139"
         sodipodi:cx="166.42857"
         sodipodi:sides="6"
         id="path3944"
         style="fill:#dadff2;fill-opacity:1;stroke:none"
         sodipodi:type="star" />
      <path
         transform="matrix(-1,0,0,-1,292.24605,1055.5633)"
         d="m 168.82174,492.61139 c 0,1.32171 -1.07145,2.39317 -2.39317,2.39317 -1.32171,0 -2.39317,-1.07146 -2.39317,-2.39317 0,-1.32171 1.07146,-2.39317 2.39317,-2.39317 1.32172,0 2.39317,1.07146 2.39317,2.39317 z"
         sodipodi:ry="2.3931708"
         sodipodi:rx="2.3931708"
         sodipodi:cy="492.61139"
         sodipodi:cx="166.42857"
         id="path3946"
         style="fill:#343647;fill-opacity:1;stroke:none"
         sodipodi:type="arc" />
      <path
         transform="matrix(-0.5,0.8660254,-0.8660254,-0.5,676.25688,688.57303)"
         sodipodi:type="star"
         style="fill:#dadff2;fill-opacity:1;stroke:none"
         id="path3950"
         sodipodi:sides="6"
         sodipodi:cx="166.42857"
         sodipodi:cy="492.61139"
         sodipodi:r1="6.0672312"
         sodipodi:r2="5.2543764"
         sodipodi:arg1="0.78539816"
         sodipodi:arg2="1.3089969"
         inkscape:flatsided="true"
         inkscape:rounded="0"
         inkscape:randomized="0"
         d="m 170.71875,496.90157 -5.86049,1.57031 -4.29018,-4.29018 1.57031,-5.86049 5.8605,-1.57032 4.29018,4.29018 z" />
      <path
         transform="matrix(-0.5,0.8660254,-0.8660254,-0.5,676.25688,688.57303)"
         sodipodi:type="arc"
         style="fill:#343647;fill-opacity:1;stroke:none"
         id="path3952"
         sodipodi:cx="166.42857"
         sodipodi:cy="492.61139"
         sodipodi:rx="2.3931708"
         sodipodi:ry="2.3931708"
         d="m 168.82174,492.61139 c 0,1.32171 -1.07145,2.39317 -2.39317,2.39317 -1.32171,0 -2.39317,-1.07146 -2.39317,-2.39317 0,-1.32171 1.07146,-2.39317 2.39317,-2.39317 1.32172,0 2.39317,1.07146 2.39317,2.39317 z" />
      <path
         transform="matrix(0.5,0.8660254,-0.8660254,0.5,550.43939,172.51477)"
         d="m 170.71875,496.90157 -5.86049,1.57031 -4.29018,-4.29018 1.57031,-5.86049 5.8605,-1.57032 4.29018,4.29018 z"
         inkscape:randomized="0"
         inkscape:rounded="0"
         inkscape:flatsided="true"
         sodipodi:arg2="1.3089969"
         sodipodi:arg1="0.78539816"
         sodipodi:r2="5.2543764"
         sodipodi:r1="6.0672312"
         sodipodi:cy="492.61139"
         sodipodi:cx="166.42857"
         sodipodi:sides="6"
         id="path3956"
         style="fill:#dadff2;fill-opacity:1;stroke:none"
         sodipodi:type="star" />
      <path
         transform="matrix(0.5,0.8660254,-0.8660254,0.5,550.43939,172.51477)"
         d="m 168.82174,492.61139 c 0,1.32171 -1.07145,2.39317 -2.39317,2.39317 -1.32171,0 -2.39317,-1.07146 -2.39317,-2.39317 0,-1.32171 1.07146,-2.39317 2.39317,-2.39317 1.32172,0 2.39317,1.07146 2.39317,2.39317 z"
         sodipodi:ry="2.3931708"
         sodipodi:rx="2.3931708"
         sodipodi:cy="492.61139"
         sodipodi:cx="166.42857"
         id="path3958"
         style="fill:#343647;fill-opacity:1;stroke:none"
         sodipodi:type="arc" />
      <path
         transform="translate(40.611085,23.446781)"
         sodipodi:type="star"
         style="fill:#dadff2;fill-opacity:1;stroke:none"
         id="path3962"
         sodipodi:sides="6"
         sodipodi:cx="166.42857"
         sodipodi:cy="492.61139"
         sodipodi:r1="6.0672312"
         sodipodi:r2="5.2543764"
         sodipodi:arg1="0.78539816"
         sodipodi:arg2="1.3089969"
         inkscape:flatsided="true"
         inkscape:rounded="0"
         inkscape:randomized="0"
         d="m 170.71875,496.90157 -5.86049,1.57031 -4.29018,-4.29018 1.57031,-5.86049 5.8605,-1.57032 4.29018,4.29018 z" />
      <path
         transform="translate(40.611085,23.446781)"
         sodipodi:type="arc"
         style="fill:#343647;fill-opacity:1;stroke:none"
         id="path3964"
         sodipodi:cx="166.42857"
         sodipodi:cy="492.61139"
         sodipodi:rx="2.3931708"
         sodipodi:ry="2.3931708"
         d="m 168.82174,492.61139 c 0,1.32171 -1.07145,2.39317 -2.39317,2.39317 -1.32171,0 -2.39317,-1.07146 -2.39317,-2.39317 0,-1.32171 1.07146,-2.39317 2.39317,-2.39317 1.32172,0 2.39317,1.07146 2.39317,2.39317 z" />
      <rect
         transform="matrix(0.88475074,0.4660645,-0.4660645,0.88475074,0,0)"
         ry="1.1900859"
         rx="1.1900859"
         y="377.06824"
         x="396.8009"
         height="45.385609"
         width="3.7821341"
         id="rect3966"
         style="fill:#2c2735;fill-opacity:1;stroke:none" />
      <path
         inkscape:connector-curvature="0"
         id="rect3968"
         d="m 175.84375,519.125 c -0.52341,0.057 -1.01635,0.37214 -1.28125,0.875 l -19.625,37.25 c -0.16913,0.32106 -0.23621,0.66785 -0.1875,1 0.0755,0.0586 0.16232,0.11006 0.25,0.15625 l 0.4375,0.21875 c 0.80458,0.42383 1.79492,0.11708 2.21875,-0.6875 l 19.625,-37.25 c 0.16913,-0.32106 0.23621,-0.66785 0.1875,-1 -0.0755,-0.0586 -0.16232,-0.11006 -0.25,-0.15625 l -0.4375,-0.21875 c -0.30172,-0.15894 -0.62345,-0.22173 -0.9375,-0.1875 z"
         style="fill:#dadff2;fill-opacity:1;stroke:none" />
      <path
         transform="matrix(0.04158288,0,0,0.04158288,159.50799,517.07088)"
         sodipodi:type="arc"
         style="fill:#343647;fill-opacity:1;stroke:none"
         id="path3921"
         sodipodi:cx="166.42857"
         sodipodi:cy="539.50507"
         sodipodi:rx="290"
         sodipodi:ry="290"
         d="m 456.42857,539.50507 c 0,160.16257 -129.83742,290 -290,290 -160.1625738,0 -290,-129.83743 -290,-290 0,-160.16258 129.8374262,-290 290,-290 160.16258,0 290,129.83742 290,290 z" />
      <path
         inkscape:connector-curvature="0"
         id="path3923"
         d="m 164.71875,527.5625 c -5.85095,0.82975 -10.34375,5.85742 -10.34375,11.9375 0.003,0.01 -0.003,0.0216 0,0.0312 1.12919,3.8925 4.66338,6.71875 8.84375,6.71875 5.09095,0 9.21875,-4.21069 9.21875,-9.40625 0,-4.67001 -3.34713,-8.54505 -7.71875,-9.28125 z"
         style="fill:#dadff2;fill-opacity:1;stroke:none" />
      <path
         d="m 628.57141,677.89789 c 0,2.07107 -1.67893,3.75 -3.75,3.75 -2.07107,0 -3.75,-1.67893 -3.75,-3.75 0,-2.07107 1.67893,-3.75 3.75,-3.75 2.07107,0 3.75,1.67893 3.75,3.75 z"
         sodipodi:ry="3.75"
         sodipodi:rx="3.75"
         sodipodi:cy="677.89789"
         sodipodi:cx="624.82141"
         id="path4344"
         style="fill:#2c2735;fill-opacity:1;stroke:none"
         sodipodi:type="arc"
         transform="translate(-353.72473,-152.39667)" />
      <path
         id="path4346"
         d="m 271.10563,521.75065 c -2.07107,0 -3.75,1.67893 -3.75,3.75 0,0.6092 0.14847,1.17891 0.40625,1.6875 0.42455,0.16678 0.89127,0.28125 1.375,0.28125 2.07107,0 3.75,-1.67893 3.75,-3.75 0,-0.61913 -0.17179,-1.20408 -0.4375,-1.71875 -0.42352,-0.16586 -0.86144,-0.25 -1.34375,-0.25 z"
         style="fill:#dadff2;fill-opacity:1;stroke:none"
         inkscape:connector-curvature="0" />
      <path
         transform="translate(-343.87574,-175.88272)"
         sodipodi:type="arc"
         style="fill:#2c2735;fill-opacity:1;stroke:none"
         id="path4348"
         sodipodi:cx="624.82141"
         sodipodi:cy="677.89789"
         sodipodi:rx="3.75"
         sodipodi:ry="3.75"
         d="m 628.57141,677.89789 c 0,2.07107 -1.67893,3.75 -3.75,3.75 -2.07107,0 -3.75,-1.67893 -3.75,-3.75 0,-2.07107 1.67893,-3.75 3.75,-3.75 2.07107,0 3.75,1.67893 3.75,3.75 z" />
      <path
         inkscape:connector-curvature="0"
         style="fill:#dadff2;fill-opacity:1;stroke:none"
         d="m 280.95462,498.2646 c -2.07107,0 -3.75,1.67893 -3.75,3.75 0,0.6092 0.14847,1.17891 0.40625,1.6875 0.42455,0.16678 0.89127,0.28125 1.375,0.28125 2.07107,0 3.75,-1.67893 3.75,-3.75 0,-0.61913 -0.17179,-1.20408 -0.4375,-1.71875 -0.42352,-0.16586 -0.86144,-0.25 -1.34375,-0.25 z"
         id="path4350" />
      <path
         d="m 628.57141,677.89789 c 0,2.07107 -1.67893,3.75 -3.75,3.75 -2.07107,0 -3.75,-1.67893 -3.75,-3.75 0,-2.07107 1.67893,-3.75 3.75,-3.75 2.07107,0 3.75,1.67893 3.75,3.75 z"
         sodipodi:ry="3.75"
         sodipodi:rx="3.75"
         sodipodi:cy="677.89789"
         sodipodi:cx="624.82141"
         id="path4352"
         style="fill:#2c2735;fill-opacity:1;stroke:none"
         sodipodi:type="arc"
         transform="translate(-414.59003,-252.66843)" />
      <path
         id="path4354"
         d="m 210.24033,421.47889 c -2.07107,0 -3.75,1.67893 -3.75,3.75 0,0.6092 0.14847,1.17891 0.40625,1.6875 0.42455,0.16678 0.89127,0.28125 1.375,0.28125 2.07107,0 3.75,-1.67893 3.75,-3.75 0,-0.61913 -0.17179,-1.20408 -0.4375,-1.71875 -0.42352,-0.16586 -0.86144,-0.25 -1.34375,-0.25 z"
         style="fill:#dadff2;fill-opacity:1;stroke:none"
         inkscape:connector-curvature="0" />
      <path
         inkscape:connector-curvature="0"
         id="path4405"
         d="m 166.4375,273.03125 c -147.162106,0 -266.46875,119.30664 -266.46875,266.46875 0,147.16211 119.306644,266.46875 266.46875,266.46875 147.16211,0 266.4375,-119.30664 266.4375,-266.46875 0,-147.16211 -119.27539,-266.46875 -266.4375,-266.46875 z m 0,13.59375 c 139.66681,0 252.875,113.20819 252.875,252.875 0,139.66681 -113.20819,252.90625 -252.875,252.90625 -139.666813,0 -252.90625,-113.23944 -252.90625,-252.90625 0,-139.66681 113.239437,-252.875 252.90625,-252.875 z"
         style="fill:#bfc4e1;fill-opacity:1;stroke:none" />
      <path
         inkscape:connector-curvature="0"
         id="path3805"
         d="m 166.4375,249.5 c -160.1625775,0 -290,129.83742 -290,290 0,160.16258 129.8374225,290 290,290 160.16258,0 290,-129.83742 290,-290 0,-160.16258 -129.83742,-290 -290,-290 z m 0,12.15625 c 153.45626,0 277.84375,124.38749 277.84375,277.84375 0,153.45626 -124.38749,277.875 -277.84375,277.875 -153.456263,0 -277.875,-124.41874 -277.875,-277.875 0,-153.45626 124.418737,-277.84375 277.875,-277.84375 z"
         style="fill:#23222c;fill-opacity:1;stroke:none" />
      <path
         inkscape:connector-curvature="0"
         id="path3807"
         d="M 166.4375,253.0625 C 8.2456686,253.0625 -120,381.30817 -120,539.5 c 0,158.19183 128.2456686,286.4375 286.4375,286.4375 158.19183,0 286.4375,-128.24567 286.4375,-286.4375 0,-158.19183 -128.24567,-286.4375 -286.4375,-286.4375 z m 0,30.6875 c 141.24341,0 255.75,114.50659 255.75,255.75 0,141.24341 -114.50659,255.75 -255.75,255.75 -141.24341,0 -255.75,-114.50659 -255.75,-255.75 0,-141.24341 114.50659,-255.75 255.75,-255.75 z"
         style="fill:#32313f;fill-opacity:1;stroke:none" />
      <path
         inkscape:transform-center-y="-200.56309"
         inkscape:transform-center-x="183.09609"
         d="m -11.364216,338.94196 c 0,2.92893 -2.374369,5.3033 -5.303301,5.3033 -2.928932,0 -5.303301,-2.37437 -5.303301,-5.3033 0,-2.92894 2.374369,-5.30331 5.303301,-5.30331 2.928932,0 5.303301,2.37437 5.303301,5.30331 z"
         sodipodi:ry="5.3033009"
         sodipodi:rx="5.3033009"
         sodipodi:cy="338.94196"
         sodipodi:cx="-16.667517"
         id="path4173"
         style="fill:none;stroke:#23222c;stroke-width:2;stroke-linecap:round;stroke-linejoin:round;stroke-miterlimit:4;stroke-opacity:1;stroke-dasharray:none;stroke-dashoffset:0.8"
         sodipodi:type="arc" />
      <path
         transform="matrix(0.5,-0.8660254,0.8660254,0.5,-384.01079,413.8839)"
         sodipodi:type="arc"
         style="fill:none;stroke:#23222c;stroke-width:2;stroke-linecap:round;stroke-linejoin:round;stroke-miterlimit:4;stroke-opacity:1;stroke-dasharray:none;stroke-dashoffset:0.8"
         id="path4175"
         sodipodi:cx="-16.667517"
         sodipodi:cy="338.94196"
         sodipodi:rx="5.3033009"
         sodipodi:ry="5.3033009"
         d="m -11.364216,338.94196 c 0,2.92893 -2.374369,5.3033 -5.303301,5.3033 -2.928932,0 -5.303301,-2.37437 -5.303301,-5.3033 0,-2.92894 2.374369,-5.30331 5.303301,-5.30331 2.928932,0 5.303301,2.37437 5.303301,5.30331 z"
         inkscape:transform-center-x="265.24078"
         inkscape:transform-center-y="58.284325" />
      <path
         inkscape:transform-center-y="258.84742"
         inkscape:transform-center-x="82.144683"
         d="m -11.364216,338.94196 c 0,2.92893 -2.374369,5.3033 -5.303301,5.3033 -2.928932,0 -5.303301,-2.37437 -5.303301,-5.3033 0,-2.92894 2.374369,-5.30331 5.303301,-5.30331 2.928932,0 5.303301,2.37437 5.303301,5.30331 z"
         sodipodi:ry="5.3033009"
         sodipodi:rx="5.3033009"
         sodipodi:cy="338.94196"
         sodipodi:cx="-16.667517"
         id="path4177"
         style="fill:none;stroke:#23222c;stroke-width:2;stroke-linecap:round;stroke-linejoin:round;stroke-miterlimit:4;stroke-opacity:1;stroke-dasharray:none;stroke-dashoffset:0.8"
         sodipodi:type="arc"
         transform="matrix(-0.5,-0.8660254,0.8660254,-0.5,-217.58221,953.38895)" />
      <path
         transform="matrix(-1,0,0,-1,332.85716,1079.0101)"
         sodipodi:type="arc"
         style="fill:none;stroke:#23222c;stroke-width:2;stroke-linecap:round;stroke-linejoin:round;stroke-miterlimit:4;stroke-opacity:1;stroke-dasharray:none;stroke-dashoffset:0.8"
         id="path4179"
         sodipodi:cx="-16.667517"
         sodipodi:cy="338.94196"
         sodipodi:rx="5.3033009"
         sodipodi:ry="5.3033009"
         d="m -11.364216,338.94196 c 0,2.92893 -2.374369,5.3033 -5.303301,5.3033 -2.928932,0 -5.303301,-2.37437 -5.303301,-5.3033 0,-2.92894 2.374369,-5.30331 5.303301,-5.30331 2.928932,0 5.303301,2.37437 5.303301,5.30331 z"
         inkscape:transform-center-x="-183.0961"
         inkscape:transform-center-y="200.5631" />
      <path
         inkscape:transform-center-y="-58.284325"
         inkscape:transform-center-x="-265.24079"
         d="m -11.364216,338.94196 c 0,2.92893 -2.374369,5.3033 -5.303301,5.3033 -2.928932,0 -5.303301,-2.37437 -5.303301,-5.3033 0,-2.92894 2.374369,-5.30331 5.303301,-5.30331 2.928932,0 5.303301,2.37437 5.303301,5.30331 z"
         sodipodi:ry="5.3033009"
         sodipodi:rx="5.3033009"
         sodipodi:cy="338.94196"
         sodipodi:cx="-16.667517"
         id="path4181"
         style="fill:none;stroke:#23222c;stroke-width:2;stroke-linecap:round;stroke-linejoin:round;stroke-miterlimit:4;stroke-opacity:1;stroke-dasharray:none;stroke-dashoffset:0.8"
         sodipodi:type="arc"
         transform="matrix(-0.5,0.8660254,-0.8660254,-0.5,716.86795,665.12619)" />
      <path
         transform="matrix(0.5,0.8660254,-0.8660254,0.5,550.43937,125.62114)"
         sodipodi:type="arc"
         style="fill:none;stroke:#23222c;stroke-width:2;stroke-linecap:round;stroke-linejoin:round;stroke-miterlimit:4;stroke-opacity:1;stroke-dasharray:none;stroke-dashoffset:0.8"
         id="path4183"
         sodipodi:cx="-16.667517"
         sodipodi:cy="338.94196"
         sodipodi:rx="5.3033009"
         sodipodi:ry="5.3033009"
         d="m -11.364216,338.94196 c 0,2.92893 -2.374369,5.3033 -5.303301,5.3033 -2.928932,0 -5.303301,-2.37437 -5.303301,-5.3033 0,-2.92894 2.374369,-5.30331 5.303301,-5.30331 2.928932,0 5.303301,2.37437 5.303301,5.30331 z"
         inkscape:transform-center-x="-82.144693"
         inkscape:transform-center-y="-258.84742" />
      <path
         sodipodi:nodetypes="scscs"
         inkscape:connector-curvature="0"
         id="path4429"
         d="m 75.125,508.65625 c 0,4.98263 3.695449,9.03773 8.34375,9.3125 -3.05398,-1.59093 -5.1875,-5.10142 -5.1875,-9.1875 0,-4.34475 2.41366,-8.04253 1.609803,-8.75564 -0.803857,-0.71311 -4.766053,3.47014 -4.766053,8.63064 z"
         style="fill:#dadff2;fill-opacity:1;stroke:none" />
      <path
         d="m 840.53571,704.68359 c 0,2.36694 -1.91878,4.28572 -4.28571,4.28572 -2.36693,0 -4.28571,-1.91878 -4.28571,-4.28572 0,-2.36693 1.91878,-4.28571 4.28571,-4.28571 2.36693,0 4.28571,1.91878 4.28571,4.28571 z"
         sodipodi:ry="4.2857141"
         sodipodi:rx="4.2857141"
         sodipodi:cy="704.68359"
         sodipodi:cx="836.25"
         id="path4276"
         style="fill:#2c2735;fill-opacity:1;stroke:none"
         sodipodi:type="arc" />
    </g>
  </g>
</svg>
