<?xml version="1.0" encoding="UTF-8" standalone="no"?>
<svg
   xmlns:dc="http://purl.org/dc/elements/1.1/"
   xmlns:cc="http://creativecommons.org/ns#"
   xmlns:rdf="http://www.w3.org/1999/02/22-rdf-syntax-ns#"
   xmlns:svg="http://www.w3.org/2000/svg"
   xmlns="http://www.w3.org/2000/svg"
   xmlns:sodipodi="http://sodipodi.sourceforge.net/DTD/sodipodi-0.dtd"
   xmlns:inkscape="http://www.inkscape.org/namespaces/inkscape"
   width="414pt"
   height="200pt"
   viewBox="0 0 414 200"
   version="1.1"
   id="svg15388"
   inkscape:version="0.91 r13725"
   sodipodi:docname="Cannon3.svg">
  <metadata
     id="metadata15618">
    <rdf:RDF>
      <cc:Work
         rdf:about="">
        <dc:format>image/svg+xml</dc:format>
        <dc:type
           rdf:resource="http://purl.org/dc/dcmitype/StillImage" />
        <dc:title></dc:title>
      </cc:Work>
    </rdf:RDF>
  </metadata>
  <defs
     id="defs15616">
    <filter
       style="color-interpolation-filters:sRGB;"
       inkscape:label="Cross Blur"
       id="filter15767">
      <feColorMatrix
         in="SourceGraphic"
         values="1 0 0 0 0 0 1 0 0 0 0 0 1 0 0 -0.2125 -0.7154 -0.0721 1 0 "
         result="colormatrix"
         id="feColorMatrix15769" />
      <feComposite
         in="SourceGraphic"
         in2="colormatrix"
         operator="arithmetic"
         k2="1"
         k3="0"
         k4="0"
         result="composite"
         id="feComposite15771" />
      <feGaussianBlur
         stdDeviation="0.2 0.01"
         result="blur1"
         id="feGaussianBlur15773" />
      <feGaussianBlur
         in="composite"
         stdDeviation="0.01 0.2"
         result="blur2"
         id="feGaussianBlur15775" />
      <feBlend
         in="blur2"
         in2="blur1"
         mode="darken"
         result="blend"
         id="feBlend15777" />
    </filter>
  </defs>
  <sodipodi:namedview
     pagecolor="#ffffff"
     bordercolor="#666666"
     borderopacity="1"
     objecttolerance="10"
     gridtolerance="10"
     guidetolerance="10"
     inkscape:pageopacity="0"
     inkscape:pageshadow="2"
     inkscape:window-width="1600"
     inkscape:window-height="837"
     id="namedview15614"
     showgrid="false"
     inkscape:zoom="2.0487662"
     inkscape:cx="258.72935"
     inkscape:cy="94.984986"
     inkscape:window-x="-8"
     inkscape:window-y="-8"
     inkscape:window-maximized="1"
     inkscape:current-layer="svg15388" />
  <g
     id="g15641"
     style="filter:url(#filter15767)">
    <path
       id="path15390"
       d=" M 11.87 5.03 C 13.71 0.21 19.76 1.73 22.84 4.51 C 64.77 11.13 106.88 17.17 148.63 24.40 C 150.04 26.19 152.20 25.80 154.18 25.49 C 157.97 26.01 161.76 26.56 165.56 27.05 C 175.91 29.02 186.33 30.66 196.76 32.22 C 205.01 32.83 213.13 34.32 221.20 36.09 C 231.31 37.48 241.37 39.26 251.46 40.78 C 254.61 41.30 257.81 41.13 260.99 41.05 C 262.64 42.40 264.34 44.34 266.68 43.35 C 287.79 40.24 309.60 54.06 312.74 75.63 C 333.08 70.04 330.62 107.93 312.84 103.38 C 304.40 94.99 299.22 111.00 290.86 113.06 C 304.07 117.37 318.24 118.60 331.29 123.32 C 329.76 123.66 328.24 124.00 326.72 124.33 C 325.53 124.25 324.34 124.16 323.15 124.07 C 320.73 123.42 318.36 122.81 315.99 122.08 L 315.23 121.84 C 313.18 121.12 311.11 120.44 309.02 119.90 C 308.62 119.84 307.82 119.74 307.43 119.68 C 304.35 119.23 301.37 118.37 298.36 117.63 C 288.11 113.90 276.61 110.99 279.94 126.82 L 279.23 127.21 C 278.66 127.43 277.50 127.86 276.92 128.08 C 277.73 118.35 279.76 108.13 275.85 98.80 C 275.68 97.34 275.34 94.42 275.17 92.96 C 272.94 78.62 261.72 68.31 254.17 56.66 C 254.07 56.32 253.86 55.62 253.76 55.27 C 256.27 57.41 258.81 59.53 261.16 61.85 C 263.65 65.34 266.14 68.83 268.68 72.29 C 270.97 76.09 272.86 80.11 274.85 84.07 C 275.63 85.99 276.21 87.99 276.83 89.97 C 277.45 92.35 278.07 94.73 278.68 97.12 C 279.73 101.89 280.24 106.79 281.61 111.49 C 288.04 112.63 294.49 108.38 299.21 104.25 C 301.92 101.58 304.12 98.43 306.19 95.24 C 306.68 94.33 307.11 93.40 307.48 92.44 C 308.84 88.66 309.81 84.72 310.22 80.72 C 310.06 78.39 309.81 76.07 309.45 73.77 C 308.81 69.78 307.23 66.01 305.12 62.59 C 290.73 39.12 259.61 48.46 237.31 40.65 C 227.45 38.98 240.89 44.48 244.00 47.08 C 243.51 47.32 242.52 47.80 242.02 48.03 C 229.11 40.52 215.08 35.93 200.03 35.93 C 195.98 35.21 192.00 34.25 188.08 33.05 C 155.21 28.12 122.40 22.63 89.50 17.85 C 68.22 14.23 46.83 11.23 25.54 7.70 C 21.35 6.14 14.35 0.83 13.60 8.75 C 13.23 10.06 12.95 11.39 12.70 12.73 C 12.32 14.67 11.96 16.61 11.61 18.56 C 11.27 20.24 10.94 21.93 10.63 23.62 C 10.31 25.30 9.99 26.98 9.67 28.66 C 9.37 30.04 9.06 31.41 8.78 32.79 C 8.10 36.18 7.29 39.56 6.89 43.00 C 7.36 48.18 14.94 44.50 18.17 45.96 C 53.63 54.82 88.92 64.73 124.44 73.40 C 128.66 76.02 129.49 71.45 131.36 69.30 C 134.38 65.68 137.42 62.07 140.27 58.31 C 142.85 55.87 145.46 53.47 148.13 51.14 C 150.94 49.35 153.50 47.23 156.18 45.27 C 159.53 43.68 162.87 42.03 166.05 40.12 C 172.15 38.16 178.17 35.47 184.65 35.10 C 185.85 35.28 187.05 35.45 188.26 35.62 C 160.48 42.02 133.07 60.31 124.93 88.78 L 124.14 88.97 C 123.84 88.43 123.23 87.36 122.93 86.83 C 123.61 84.58 124.34 82.35 125.16 80.15 C 130.55 72.63 112.36 75.22 107.86 72.08 C 97.83 66.66 97.38 86.57 98.69 90.24 C 102.36 91.43 106.17 92.06 109.91 92.98 C 111.58 93.52 113.24 94.11 114.95 94.52 C 116.58 94.75 118.23 94.85 119.88 94.89 C 118.86 95.76 117.80 96.58 116.72 97.39 C 110.07 94.10 100.31 96.26 95.08 90.54 C 95.32 83.32 98.84 76.65 98.69 69.39 C 70.44 62.43 42.39 54.50 14.17 47.56 C 9.87 50.61 3.75 47.37 4.20 42.05 C 6.92 29.75 8.93 17.27 11.87 5.03 M 311.84 86.55 C 311.14 87.49 310.73 88.55 310.60 89.74 C 309.80 91.47 309.14 93.27 308.77 95.15 C 306.30 98.93 320.25 105.53 320.87 98.22 C 322.70 97.73 323.19 95.87 323.11 94.20 C 324.30 93.26 324.02 91.52 324.26 90.18 C 331.29 78.49 307.27 71.88 311.84 86.55 Z"
       opacity="1.00"
       stroke-width="0.09375"
       stroke="#0a0908"
       fill="#0a0908" />
    <path
       id="path15392"
       d=" M 13.60 8.75 C 14.35 0.83 21.35 6.14 25.54 7.70 C 46.83 11.23 68.22 14.23 89.50 17.85 C 86.42 17.49 82.90 18.94 81.99 22.14 C 109.19 28.12 136.02 36.09 163.56 40.28 C 159.99 41.75 156.48 44.53 152.40 43.58 C 108.47 33.24 64.58 22.65 20.60 12.54 C 17.97 11.91 15.71 10.37 13.60 8.75 Z"
       opacity="1.00"
       stroke-width="0.09375"
       stroke="#2d2c2c"
       fill="#2d2c2c" />
    <path
       id="path15394"
       d=" M 148.63 24.40 C 184.46 -3.26 242.02 4.37 266.68 43.35 C 264.34 44.34 262.64 42.40 260.99 41.05 C 247.76 21.22 223.16 11.64 200.09 10.77 C 196.27 9.99 192.41 10.18 188.60 10.82 C 176.41 13.48 164.15 17.79 154.18 25.49 C 152.20 25.80 150.04 26.19 148.63 24.40 Z"
       opacity="1.00"
       stroke-width="0.09375"
       stroke="#050301"
       fill="#050301" />
    <path
       id="path15396"
       d=" M 12.70 12.73 C 12.95 11.39 13.23 10.06 13.60 8.75 C 15.71 10.37 17.97 11.91 20.60 12.54 C 64.58 22.65 108.47 33.24 152.40 43.58 C 156.48 44.53 159.99 41.75 163.56 40.28 C 164.18 40.24 165.43 40.16 166.05 40.12 C 162.87 42.03 159.53 43.68 156.18 45.27 C 151.95 46.33 147.43 47.43 143.12 45.99 C 101.56 36.34 60.09 26.19 18.48 16.69 C 16.01 16.32 14.17 14.64 12.70 12.73 Z"
       opacity="1.00"
       stroke-width="0.09375"
       stroke="#2b2929"
       fill="#2b2929" />
    <path
       id="path15398"
       d=" M 188.60 10.82 C 192.41 10.18 196.27 9.99 200.09 10.77 C 196.25 10.74 192.43 10.70 188.60 10.82 Z"
       opacity="1.00"
       stroke-width="0.09375"
       stroke="#221508"
       fill="#221508" />
    <path
       id="path15400"
       d=" M 154.18 25.49 C 164.15 17.79 176.41 13.48 188.60 10.82 C 192.43 10.70 196.25 10.74 200.09 10.77 C 223.16 11.64 247.76 21.22 260.99 41.05 C 257.81 41.13 254.61 41.30 251.46 40.78 C 246.97 38.67 241.98 37.06 240.14 31.84 C 218.32 16.41 188.40 12.55 165.56 27.05 C 161.76 26.56 157.97 26.01 154.18 25.49 Z"
       opacity="1.00"
       stroke-width="0.09375"
       stroke="#4b2e12"
       fill="#4b2e12" />
    <path
       id="path15402"
       d=" M 12.70 12.73 C 14.17 14.64 16.01 16.32 18.48 16.69 C 60.09 26.19 101.56 36.34 143.12 45.99 C 147.43 47.43 151.95 46.33 156.18 45.27 C 153.50 47.23 150.94 49.35 148.13 51.14 C 147.14 51.43 146.14 51.72 145.15 52.00 C 106.02 45.68 67.80 34.35 29.05 25.92 C 23.24 23.96 15.04 24.81 11.61 18.56 C 11.96 16.61 12.32 14.67 12.70 12.73 Z"
       opacity="1.00"
       stroke-width="0.09375"
       stroke="#282727"
       fill="#282727" />
    <path
       id="path15404"
       d=" M 165.56 27.05 C 188.40 12.55 218.32 16.41 240.14 31.84 C 241.98 37.06 246.97 38.67 251.46 40.78 C 241.37 39.26 231.31 37.48 221.20 36.09 C 214.97 31.30 206.18 30.20 210.74 20.43 C 207.08 23.31 203.92 21.51 200.46 18.75 C 203.93 23.42 201.25 29.39 196.76 32.22 C 186.33 30.66 175.91 29.02 165.56 27.05 Z"
       opacity="1.00"
       stroke-width="0.09375"
       stroke="#412810"
       fill="#412810" />
    <path
       id="path15406"
       d=" M 81.99 22.14 C 82.90 18.94 86.42 17.49 89.50 17.85 C 122.40 22.63 155.21 28.12 188.08 33.05 C 186.81 33.52 185.74 34.33 184.65 35.10 C 178.17 35.47 172.15 38.16 166.05 40.12 C 165.43 40.16 164.18 40.24 163.56 40.28 C 136.02 36.09 109.19 28.12 81.99 22.14 Z"
       opacity="1.00"
       stroke-width="0.09375"
       stroke="#302e2e"
       fill="#302e2e" />
    <path
       id="path15408"
       d=" M 10.63 23.62 C 10.94 21.93 11.27 20.24 11.61 18.56 C 15.04 24.81 23.24 23.96 29.05 25.92 C 67.80 34.35 106.02 45.68 145.15 52.00 C 143.05 55.26 139.42 56.94 135.45 55.50 C 95.28 46.28 55.22 36.45 15.04 27.22 C 13.04 26.85 11.93 24.99 10.63 23.62 Z"
       opacity="1.00"
       stroke-width="0.09375"
       stroke="#262424"
       fill="#262424" />
    <path
       id="path15410"
       d=" M 200.46 18.75 C 203.92 21.51 207.08 23.31 210.74 20.43 C 206.18 30.20 214.97 31.30 221.20 36.09 C 213.13 34.32 205.01 32.83 196.76 32.22 C 201.25 29.39 203.93 23.42 200.46 18.75 Z"
       opacity="1.00"
       stroke-width="0.09375"
       stroke="#3b250e"
       fill="#3b250e" />
    <path
       id="path15412"
       d=" M 9.67 28.66 C 9.99 26.98 10.31 25.30 10.63 23.62 C 11.93 24.99 13.04 26.85 15.04 27.22 C 55.22 36.45 95.28 46.28 135.45 55.50 C 139.42 56.94 143.05 55.26 145.15 52.00 C 146.14 51.72 147.14 51.43 148.13 51.14 C 145.46 53.47 142.85 55.87 140.27 58.31 C 139.77 58.55 138.77 59.03 138.27 59.27 C 95.29 51.82 51.21 41.49 9.67 28.66 Z"
       opacity="1.00"
       stroke-width="0.09375"
       stroke="#242222"
       fill="#242222" />
    <path
       id="path15414"
       d=" M 9.67 28.66 C 51.21 41.49 95.29 51.82 138.27 59.27 C 135.81 61.51 133.23 64.92 129.43 63.61 C 90.98 54.33 52.46 45.28 13.94 36.29 C 11.80 35.87 10.27 34.25 8.78 32.79 C 9.06 31.41 9.37 30.04 9.67 28.66 Z"
       opacity="1.00"
       stroke-width="0.09375"
       stroke="#222020"
       fill="#222020" />
    <path
       id="path15416"
       d=" M 8.78 32.79 C 10.27 34.25 11.80 35.87 13.94 36.29 C 52.46 45.28 90.98 54.33 129.43 63.61 C 133.23 64.92 135.81 61.51 138.27 59.27 C 138.77 59.03 139.77 58.55 140.27 58.31 C 137.42 62.07 134.38 65.68 131.36 69.30 C 129.88 70.12 128.41 71.01 126.77 71.46 C 86.69 62.76 47.29 49.95 6.89 43.00 C 7.29 39.56 8.10 36.18 8.78 32.79 Z"
       opacity="1.00"
       stroke-width="0.09375"
       stroke="#1f1e1e"
       fill="#1f1e1e" />
    <path
       id="path15418"
       d=" M 188.08 33.05 C 192.00 34.25 195.98 35.21 200.03 35.93 C 196.10 35.79 192.18 35.68 188.26 35.62 C 187.05 35.45 185.85 35.28 184.65 35.10 C 185.74 34.33 186.81 33.52 188.08 33.05 Z"
       opacity="1.00"
       stroke-width="0.09375"
       stroke="#1c150d"
       fill="#1c150d" />
    <path
       id="path15420"
       d=" M 124.93 88.78 C 133.07 60.31 160.48 42.02 188.26 35.62 C 192.18 35.68 196.10 35.79 200.03 35.93 C 215.08 35.93 229.11 40.52 242.02 48.03 C 246.13 50.83 250.15 53.75 254.17 56.66 C 261.72 68.31 272.94 78.62 275.17 92.96 C 276.87 96.87 272.47 99.39 270.67 95.27 C 257.16 67.20 232.63 45.04 199.81 42.64 C 190.59 43.81 174.59 41.52 172.43 53.64 C 171.37 47.52 165.11 51.65 162.91 54.77 C 161.61 57.06 165.76 62.45 161.31 61.87 C 159.65 48.04 147.36 66.51 142.05 70.92 C 140.29 73.64 138.87 76.57 136.99 79.22 C 129.86 82.65 138.39 100.88 129.18 87.79 C 124.75 100.20 123.98 98.68 124.93 88.78 Z"
       opacity="1.00"
       stroke-width="0.09375"
       stroke="#4b2e12"
       fill="#4b2e12" />
    <path
       id="path15422"
       d=" M 244.00 47.08 C 240.89 44.48 227.45 38.98 237.31 40.65 C 259.61 48.46 290.73 39.12 305.12 62.59 C 306.70 69.53 298.56 65.75 295.10 65.10 C 281.14 60.82 266.05 60.09 252.96 53.23 C 250.01 51.12 247.02 49.08 244.00 47.08 Z"
       opacity="1.00"
       stroke-width="0.09375"
       stroke="#333131"
       fill="#333131" />
    <path
       id="path15424"
       transform="scale(0.8,0.8)"
       d="M 249.76172 53.300781 C 238.23672 54.763281 218.23711 51.900781 215.53711 67.050781 C 214.21211 59.400781 206.38672 64.562891 203.63672 68.462891 C 202.01172 71.325391 207.19922 78.062891 201.63672 77.337891 C 199.56172 60.050391 184.2 83.137891 177.5625 88.650391 C 185.925 102.15039 172.77461 122.4625 173.53711 138.6875 C 180.97461 129.9875 183.68711 152.83828 176.34961 145.05078 C 174.77461 144.38828 179.66289 155.47578 174.71289 152.92578 C 167.26289 148.20078 178.49922 166.31211 170.19922 161.84961 C 169.28672 154.31211 167.92461 146.11172 171.28711 138.94922 C 160.76211 142.68672 170.60078 132.42578 167.92578 126.86328 C 179.27578 126.20078 167.91328 107.11289 171.23828 99.025391 C 162.32578 103.31289 172.98711 126.10078 161.47461 109.73828 C 155.93711 125.25078 154.97461 123.34961 156.16211 110.97461 L 155.17578 111.21289 C 154.60078 113.67539 153.98828 116.12578 153.48828 118.61328 C 152.36328 128.20078 159.83828 124.125 160.61328 117.25 C 163.83828 125.6375 161.63828 135.57461 153.80078 140.28711 C 149.86328 148.13711 159.11328 151.08672 162.55078 155.94922 C 150.41328 152.84922 157.01172 169.30078 155.94922 176.48828 C 163.12422 198.63828 179.50078 217.86289 199.80078 229.08789 C 213.76328 239.00039 206.0625 209.62422 219.3125 214.01172 C 214.425 209.63672 208.51172 202.59922 201.57422 203.13672 C 201.24922 209.67422 199.23828 216.2625 200.61328 222.8125 C 189.36328 224.9125 206.43672 193.3125 192.01172 197.25 C 193.24922 190.05 185.81211 180.76211 189.91211 175.97461 C 186.62461 169.41211 184.56328 162.29922 183.36328 155.07422 C 180.53828 136.66172 185.37461 116.7375 197.78711 102.625 C 202.19961 95.075 209.37461 89.936719 216.47461 85.136719 C 214.37461 81.411719 211.11328 78.538281 208.98828 74.863281 C 210.06328 66.850781 220.31289 73.825391 225.65039 70.462891 C 226.75039 75.650391 214.68828 83.900781 226.30078 80.238281 C 232.37578 78.450781 238.59961 77.136719 244.84961 76.074219 C 244.71211 72.811719 255.31211 64.087109 250.41211 54.724609 C 254.57461 57.399609 258.81211 59.088281 263.53711 56.675781 C 256.01211 71.150781 274.23711 72.8 279.97461 82.5625 C 288.42461 88.025 297.33828 93.499609 302.55078 102.41211 C 307.18828 108.06211 311.11289 114.31328 313.58789 121.23828 C 322.07539 120.45078 320.2625 112.92422 315 108.69922 C 319.4625 105.97422 320.07578 97.95 326.36328 99.25 C 318.57578 109.5375 332.02461 117.9125 327.97461 128.3125 C 322.87461 124.85 317.8375 128.02539 319 134.15039 C 325.35 132.30039 328.725 133.38672 326.75 140.63672 C 338.6 138.87422 328.65 117.4125 344.8125 123.5 L 344.32227 119.29297 C 343.64949 122.10924 340.0538 123.01542 338.33789 119.08789 C 321.45039 84.000391 290.78672 56.300781 249.76172 53.300781 z M 344.32227 119.29297 C 344.53167 118.41638 344.46731 117.35938 343.96289 116.19922 L 344.32227 119.29297 z "
       style="opacity:1;fill:#412810;stroke:#412810;stroke-width:0.1171875" />
    <path
       id="path15426"
       d=" M 6.89 43.00 C 47.29 49.95 86.69 62.76 126.77 71.46 C 128.41 71.01 129.88 70.12 131.36 69.30 C 129.49 71.45 128.66 76.02 124.44 73.40 C 88.92 64.73 53.63 54.82 18.17 45.96 C 14.94 44.50 7.36 48.18 6.89 43.00 Z"
       opacity="1.00"
       stroke-width="0.09375"
       stroke="#191919"
       fill="#191919" />
    <path
       id="path15428"
       d=" M 200.33 43.78 C 203.66 45.92 207.05 47.27 210.83 45.34 C 204.81 56.92 219.39 58.24 223.98 66.05 C 215.01 62.60 205.53 60.50 195.88 60.86 C 195.77 58.25 204.25 51.27 200.33 43.78 Z"
       opacity="1.00"
       stroke-width="0.09375"
       stroke="#3c250e"
       fill="#3c250e" />
    <path
       id="path15430"
       d=" M 244.00 47.08 C 247.02 49.08 250.01 51.12 252.96 53.23 C 253.16 53.74 253.56 54.76 253.76 55.27 C 253.86 55.62 254.07 56.32 254.17 56.66 C 250.15 53.75 246.13 50.83 242.02 48.03 C 242.52 47.80 243.51 47.32 244.00 47.08 Z"
       opacity="1.00"
       stroke-width="0.09375"
       stroke="#17110b"
       fill="#17110b" />
    <path
       id="path15432"
       d=" M 252.96 53.23 C 266.05 60.09 281.14 60.82 295.10 65.10 C 298.56 65.75 306.70 69.53 305.12 62.59 C 307.23 66.01 308.81 69.78 309.45 73.77 C 308.12 75.39 306.82 77.75 304.40 76.45 C 289.97 71.60 273.01 72.62 261.16 61.85 C 258.81 59.53 256.27 57.41 253.76 55.27 C 253.56 54.76 253.16 53.74 252.96 53.23 Z"
       opacity="1.00"
       stroke-width="0.09375"
       stroke="#2f2e2e"
       fill="#2f2e2e" />
    <path
       id="path15434"
       d=" M 167.19 59.89 C 168.05 53.48 176.25 59.06 180.52 56.37 C 181.40 60.52 171.75 67.12 181.04 64.19 C 178.37 65.39 175.78 66.77 173.18 68.11 C 171.50 65.13 168.89 62.83 167.19 59.89 Z"
       opacity="1.00"
       stroke-width="0.09375"
       stroke="#3b250e"
       fill="#3b250e" />
    <path
       id="path15436"
       d=" M 181.04 64.19 C 185.90 62.76 190.88 61.71 195.88 60.86 C 205.53 60.50 215.01 62.60 223.98 66.05 C 230.74 70.42 237.87 74.80 242.04 81.93 C 241.81 82.41 241.36 83.38 241.13 83.87 C 235.36 72.07 229.66 80.41 225.93 87.90 C 211.33 101.88 239.58 100.06 249.88 104.26 C 249.93 104.68 250.01 105.52 250.05 105.95 C 243.89 104.32 237.63 103.17 231.40 101.86 C 227.09 100.85 222.37 98.57 217.92 99.87 C 216.87 100.58 215.86 101.35 214.86 102.13 C 214.69 101.81 214.35 101.18 214.18 100.87 C 219.19 91.57 226.52 83.64 231.10 74.15 C 219.15 62.89 215.14 87.05 206.93 92.98 C 206.74 92.48 206.35 91.48 206.15 90.98 C 208.48 87.05 210.73 83.08 213.34 79.33 C 215.96 75.55 218.84 71.92 221.04 67.87 C 210.32 63.93 198.34 61.57 187.17 65.09 C 187.70 68.34 189.24 71.29 190.78 74.16 C 191.58 76.39 192.20 78.67 192.80 80.96 C 192.57 81.51 192.12 82.62 191.89 83.17 C 187.34 77.12 186.15 60.05 176.63 69.70 C 177.12 79.54 185.18 88.76 186.80 99.01 C 186.67 99.57 186.39 100.68 186.26 101.24 C 185.64 100.43 185.02 99.62 184.41 98.82 C 183.48 85.42 168.62 87.53 159.26 84.94 C 159.93 84.11 160.62 83.29 161.31 82.47 C 167.08 84.14 172.85 85.94 178.80 86.84 C 177.14 81.79 176.23 75.32 172.13 71.87 C 167.70 74.64 163.97 78.35 160.54 82.25 C 159.97 82.21 158.81 82.14 158.23 82.10 C 161.76 76.06 167.50 71.95 173.18 68.11 C 175.78 66.77 178.37 65.39 181.04 64.19 Z"
       opacity="1.00"
       stroke-width="0.09375"
       stroke="#0d0906"
       fill="#0d0906" />
    <path
       id="path15438"
       d=" M 261.16 61.85 C 273.01 72.62 289.97 71.60 304.40 76.45 C 306.82 77.75 308.12 75.39 309.45 73.77 C 309.81 76.07 310.06 78.39 310.22 80.72 C 308.67 82.46 307.32 86.10 304.50 84.38 C 292.65 79.98 278.36 81.45 268.68 72.29 C 266.14 68.83 263.65 65.34 261.16 61.85 Z"
       opacity="1.00"
       stroke-width="0.09375"
       stroke="#2c2a2a"
       fill="#2c2a2a" />
    <path
       id="path15440"
       d=" M 187.17 65.09 C 198.34 61.57 210.32 63.93 221.04 67.87 C 218.84 71.92 215.96 75.55 213.34 79.33 C 206.10 84.49 196.04 80.31 190.78 74.16 C 189.24 71.29 187.70 68.34 187.17 65.09 Z"
       opacity="1.00"
       stroke-width="0.09375"
       stroke="#242323"
       fill="#242323" />
    <path
       id="path15442"
       d=" M 176.63 69.70 C 186.15 60.05 187.34 77.12 191.89 83.17 C 194.81 90.51 200.62 101.66 186.80 99.01 C 185.18 88.76 177.12 79.54 176.63 69.70 Z"
       opacity="1.00"
       stroke-width="0.09375"
       stroke="#3c250e"
       fill="#3c250e" />
    <path
       id="path15444"
       d=" M 206.93 92.98 C 215.14 87.05 219.15 62.89 231.10 74.15 C 226.52 83.64 219.19 91.57 214.18 100.87 C 209.98 102.20 202.20 97.28 206.93 92.98 Z"
       opacity="1.00"
       stroke-width="0.09375"
       stroke="#3c250e"
       fill="#3c250e" />
    <path
       id="path15446"
       d=" M 98.69 90.24 C 97.38 86.57 97.83 66.66 107.86 72.08 C 112.36 75.22 130.55 72.63 125.16 80.15 C 113.78 75.95 119.95 89.78 114.95 94.52 C 113.24 94.11 111.58 93.52 109.91 92.98 C 110.60 87.68 113.46 82.73 112.91 77.26 C 105.59 77.33 107.98 90.40 98.69 90.24 Z"
       opacity="1.00"
       stroke-width="0.09375"
       stroke="#3f250b"
       fill="#3f250b" />
    <path
       id="path15448"
       d=" M 136.99 79.22 C 138.87 76.57 140.29 73.64 142.05 70.92 C 148.74 81.72 138.22 97.97 138.83 110.95 C 144.78 103.99 146.95 122.27 141.08 116.04 C 139.82 115.51 143.73 124.38 139.77 122.34 C 133.81 118.56 142.80 133.05 136.16 129.48 C 135.43 123.45 134.34 116.89 137.03 111.16 C 128.61 114.15 136.48 105.94 134.34 101.49 C 143.42 100.96 134.33 85.69 136.99 79.22 Z"
       opacity="1.00"
       stroke-width="0.09375"
       stroke="#3d260f"
       fill="#3d260f" />
    <path
       id="path15450"
       d=" M 160.54 82.25 C 163.97 78.35 167.70 74.64 172.13 71.87 C 176.23 75.32 177.14 81.79 178.80 86.84 C 172.85 85.94 167.08 84.14 161.31 82.47 L 160.54 82.25 Z"
       opacity="1.00"
       stroke-width="0.09375"
       stroke="#1b1a1a"
       fill="#1b1a1a" />
    <path
       id="path15452"
       d=" M 268.68 72.29 C 278.36 81.45 292.65 79.98 304.50 84.38 C 307.32 86.10 308.67 82.46 310.22 80.72 C 309.81 84.72 308.84 88.66 307.48 92.44 C 296.46 91.65 283.94 91.00 274.85 84.07 C 272.86 80.11 270.97 76.09 268.68 72.29 Z"
       opacity="1.00"
       stroke-width="0.09375"
       stroke="#282626"
       fill="#282626" />
    <path
       id="path15454"
       d=" M 190.78 74.16 C 196.04 80.31 206.10 84.49 213.34 79.33 C 210.73 83.08 208.48 87.05 206.15 90.98 C 199.15 96.52 195.46 85.95 192.80 80.96 C 192.20 78.67 191.58 76.39 190.78 74.16 Z"
       opacity="1.00"
       stroke-width="0.09375"
       stroke="#1d1c1c"
       fill="#1d1c1c" />
    <path
       id="path15456"
       d=" M 98.69 90.24 C 107.98 90.40 105.59 77.33 112.91 77.26 C 113.46 82.73 110.60 87.68 109.91 92.98 C 106.17 92.06 102.36 91.43 98.69 90.24 Z"
       opacity="1.00"
       stroke-width="0.09375"
       stroke="#351f0a"
       fill="#351f0a" />
    <path
       id="path15458"
       d=" M 225.93 87.90 C 229.66 80.41 235.36 72.07 241.13 83.87 C 243.37 87.48 245.50 91.17 247.19 95.09 C 251.60 108.24 233.26 95.97 227.17 97.09 C 221.02 96.65 224.35 91.33 225.93 87.90 Z"
       opacity="1.00"
       stroke-width="0.09375"
       stroke="#1f1e1e"
       fill="#1f1e1e" />
    <path
       id="path15460"
       d=" M 311.84 86.55 C 307.27 71.88 331.29 78.49 324.26 90.18 C 320.19 88.74 315.98 87.71 311.84 86.55 Z"
       opacity="1.00"
       stroke-width="0.09375"
       stroke="#4d4a4a"
       fill="#4d4a4a" />
    <path
       id="path15462"
       d=" M 114.95 94.52 C 119.95 89.78 113.78 75.95 125.16 80.15 C 124.34 82.35 123.61 84.58 122.93 86.83 C 121.92 89.52 121.08 92.28 119.88 94.89 C 118.23 94.85 116.58 94.75 114.95 94.52 Z"
       opacity="1.00"
       stroke-width="0.09375"
       stroke="#351f0a"
       fill="#351f0a" />
    <path
       id="path15464"
       d=" M 252.00 86.96 C 255.57 84.78 256.06 78.36 261.09 79.40 C 254.86 87.63 265.62 94.33 262.38 102.65 C 258.30 99.88 254.27 102.42 255.20 107.32 C 260.28 105.84 262.98 106.71 261.40 112.51 C 270.88 111.10 262.92 93.93 275.85 98.80 C 279.76 108.13 277.73 118.35 276.92 128.08 C 273.93 146.71 264.12 164.41 248.92 175.79 C 250.16 171.68 250.84 166.50 245.85 164.95 C 238.19 162.44 246.90 145.21 251.36 153.81 C 254.25 158.33 246.73 160.73 247.50 164.68 C 256.01 162.54 262.99 147.87 252.91 142.17 C 260.64 142.08 262.47 126.88 257.83 122.20 C 251.56 123.05 254.71 132.17 257.12 135.81 C 253.62 138.72 253.79 131.71 250.85 135.85 C 250.86 135.45 250.90 134.65 250.92 134.24 C 256.00 122.60 255.04 108.82 250.87 96.99 C 257.66 96.36 256.21 90.34 252.00 86.96 Z"
       opacity="1.00"
       stroke-width="0.09375"
       stroke="#3e260f"
       fill="#3e260f" />
    <path
       sodipodi:nodetypes="cccccccccccccccccccccccccccccccccccccccccccccccccccccccccccccccccccccc"
       style="opacity:1;fill:#0b0703;stroke:#0b0703;stroke-width:0.09375"
       inkscape:connector-curvature="0"
       id="path15466"
       d="m 191.89,83.17 c 0.23,-0.55 0.68,-1.66 0.91,-2.21 2.66,4.99 6.35,15.56 13.35,10.02 0.2,0.5 0.59,1.5 0.78,2 -4.73,4.3 3.05,9.22 7.25,7.89 0.17,0.31 0.51,0.94 0.68,1.26 -2.73,5.21 4.84,5.05 8.24,4.68 0.45,0.02 1.35,0.08 1.79,0.1 7.78,-1.09 18.61,2.36 25.16,-0.96 -0.04,-0.43 -0.12,-1.27 -0.17,-1.69 -0.58,-3.15 -1.48,-6.21 -2.69,-9.17 -1.69,-3.92 -3.82,-7.61 -6.06,-11.22 0.23,-0.49 0.68,-1.46 0.91,-1.94 3.71,4.52 6.85,9.52 8.83,15.06 4.17,11.83 5.13,25.61 0.05,37.25 l -0.48,-2.44 c -0.06,-2.44 -1.54,-4.11 -4.03,-4.13 -10.04,0.79 -17.52,12.21 -27.21,16.29 -0.26,0.5 -0.78,1.48 -1.04,1.97 -4.76,-5.5 -3.98,-20.23 -14.2,-14.18 -2.98,-0.15 -5.96,-0.5 -8.65,-1.85 10.45,2.56 21.02,-5.59 19.73,-16.64 -0.49,-11.01 -14.93,-18.11 -23.79,-11.3 -11.54,5.74 -8.11,25.11 4.06,27.94 -1.37,0.69 -2.25,1.97 -3.07,3.21 -0.98,-1.12 -1.99,-2.21 -2.99,-3.3 -4.72,-8.62 -9.12,3.57 -12.42,7.87 -1.52,2.23 -3.14,4.39 -4.84,6.5 -0.21,-0.3 -0.65,-0.89 -0.86,-1.19 -0.03,-0.37 -0.07,-1.11 -0.09,-1.48 -0.89,-8.28 -11.6,-14.73 -18.12,-19.78 -1.34,0.24 -2.66,0.64 -3.9,1.22 -0.58,0.28 -1.75,0.83 -2.33,1.11 -2.26,-14.73 1.61,-30.67 11.54,-41.96 0.58,0.04 1.74,0.11 2.31,0.15 l 0.77,0.22 c -0.69,0.82 -1.38,1.64 -2.05,2.47 -3.98,5.17 -7.99,10.93 -8.32,17.67 8.96,2.97 18.34,4.88 27.83,4.34 3.83,0.69 7.18,-1.82 7.49,-5.71 0.13,-0.56 0.41,-1.67 0.54,-2.23 13.82,2.65 8.01,-8.5 5.09,-15.84 m 7.24,10.84 c 0.1,6.76 7.53,-0.91 0,0 m -48.96,15.96 c -2.63,2.27 -2.61,11.64 3.82,9.03 1.73,2.58 11.45,1.42 13.05,-0.04 9.33,0.87 16.51,2.02 14.94,-9.01 -8.18,-2.25 -24.25,-1.25 -31.81,0.02 m 66.94,-0.09 c 0.03,0.47 0.08,1.4 0.11,1.87 -0.53,3.17 -0.85,10.84 2.94,7.57 9.77,-3.44 30.76,6.28 32.33,-6.08 -4.7,-11.12 -27.41,-1.5 -35.38,-3.36 m -57.65,12.11 c -0.65,3.02 0.64835,1.70702 2.41,4.31 7.35,2.9 5.35,-8.93 -2.41,-4.31 m 11.61,0.34 c -2.49,1.94 -6.92,6.32 -3.88,9.39 7.88,11.38 23.95,-19.74 3.88,-9.39 m 45.28,-0.22 c -6.34,4.89 -0.9,11.94 1.14,17.57 11.44,2.2 4.49,-16.13 -1.14,-17.57 m 17.89,-0.27 c 2.65,3.48 11.85,3.02 16.81,4.03 1.26,-8.38 -12.19,-2.07 -16.81,-4.03 m -10.68,1.75 c 0.38,3.91 2.57,7.41 3.5,11.22 4.28,-1.73 7.02,-6.09 11.2,-8.16 -4.31,-2.51 -9.85,-2.38 -14.7,-3.06 z" />
    <path
       id="path15468"
       d=" M 274.85 84.07 C 283.94 91.00 296.46 91.65 307.48 92.44 C 307.11 93.40 306.68 94.33 306.19 95.24 C 297.90 101.85 283.18 98.20 276.83 89.97 C 276.21 87.99 275.63 85.99 274.85 84.07 Z"
       opacity="1.00"
       stroke-width="0.09375"
       stroke="#242323"
       fill="#242323" />
    <path
       id="path15470"
       d=" M 159.26 84.94 C 168.62 87.53 183.48 85.42 184.41 98.82 C 182.67 101.98 178.14 102.56 178.77 106.95 C 169.28 107.49 159.90 105.58 150.94 102.61 C 151.27 95.87 155.28 90.11 159.26 84.94 M 166.45 90.39 C 163.97 95.41 170.34 97.06 164.26 101.41 C 166.67 106.03 176.55 88.60 166.45 90.39 Z"
       opacity="1.00"
       stroke-width="0.09375"
       stroke="#39220a"
       fill="#39220a" />
    <path
       id="path15472"
       transform="scale(0.8,0.8)"
       d="M 153.66211 108.53711 C 152.39961 111.89961 151.34961 115.35078 149.84961 118.61328 C 148.57461 119.70078 147.25039 120.72578 145.90039 121.73828 C 146.87539 139.65078 144.25 158.28711 150.875 175.41211 C 167.0375 229.56211 232.41172 262.18711 285.01172 239.91211 C 316.71172 229.03711 338.88828 200.71211 350.05078 170.09961 C 349.80078 169.43711 349.30078 168.1 349.05078 167.4375 C 347.42578 164.8 348.42461 161.78672 349.03711 159.01172 C 348.32461 159.28672 346.87539 159.82461 346.15039 160.09961 C 342.41289 183.38711 330.15039 205.51328 311.15039 219.73828 C 310.61289 220.18828 309.54922 221.10078 309.01172 221.55078 C 304.72422 225.81328 299.36172 228.68672 294.01172 231.38672 C 289.13672 234.02422 283.875 235.82539 278.6875 237.71289 C 274.1875 239.32539 269.56328 240.6375 264.80078 241.1875 C 264.00078 241.2875 262.41328 241.5125 261.61328 241.625 C 250.75078 243.5375 239.56289 242.375 228.77539 240.4375 C 218.75039 237.85 208.33828 235.27539 199.80078 229.08789 C 179.50078 217.86289 163.12422 198.63828 155.94922 176.48828 C 148.32422 158.26328 148.71328 137.53828 153.48828 118.61328 C 153.98828 116.12578 154.60078 113.67539 155.17578 111.21289 C 154.80078 110.53789 154.03711 109.19961 153.66211 108.53711 z "
       style="opacity:1;fill:#040301;stroke:#040301;stroke-width:0.1171875" />
    <path
       id="path15474"
       d=" M 310.60 89.74 C 310.73 88.55 311.14 87.49 311.84 86.55 C 315.98 87.71 320.19 88.74 324.26 90.18 C 324.02 91.52 324.30 93.26 323.11 94.20 C 318.91 92.91 313.64 93.44 310.60 89.74 Z"
       opacity="1.00"
       stroke-width="0.09375"
       stroke="#413f3f"
       fill="#413f3f" />
    <path
       id="path15476"
       d=" M 249.88 104.26 C 239.58 100.06 211.33 101.88 225.93 87.90 C 224.35 91.33 221.02 96.65 227.17 97.09 C 233.26 95.97 251.60 108.24 247.19 95.09 C 248.40 98.05 249.30 101.11 249.88 104.26 Z"
       opacity="1.00"
       stroke-width="0.09375"
       stroke="#171616"
       fill="#171616" />
    <path
       id="path15478"
       d=" M 166.45 90.39 C 176.55 88.60 166.67 106.03 164.26 101.41 C 170.34 97.06 163.97 95.41 166.45 90.39 Z"
       opacity="1.00"
       stroke-width="0.09375"
       stroke="#42270c"
       fill="#42270c" />
    <path
       id="path15480"
       d=" M 276.83 89.97 C 283.18 98.20 297.90 101.85 306.19 95.24 C 304.12 98.43 301.92 101.58 299.21 104.25 C 291.22 107.67 281.69 105.92 278.68 97.12 C 278.07 94.73 277.45 92.35 276.83 89.97 Z"
       opacity="1.00"
       stroke-width="0.09375"
       stroke="#201f1f"
       fill="#201f1f" />
    <path
       id="path15482"
       d=" M 308.77 95.15 C 309.14 93.27 309.80 91.47 310.60 89.74 C 313.64 93.44 318.91 92.91 323.11 94.20 C 323.19 95.87 322.70 97.73 320.87 98.22 C 316.83 97.20 312.81 96.12 308.77 95.15 Z"
       opacity="1.00"
       stroke-width="0.09375"
       stroke="#363434"
       fill="#363434" />
    <path
       id="path15484"
       d=" M 128.49 93.80 C 131.07 100.51 129.31 108.46 123.04 112.23 C 119.89 118.51 127.29 120.87 130.04 124.76 C 120.33 122.28 125.61 135.44 124.76 141.19 C 118.66 126.61 118.97 110.03 122.79 94.89 C 121.89 102.56 127.87 99.30 128.49 93.80 Z"
       opacity="1.00"
       stroke-width="0.09375"
       stroke="#3a240e"
       fill="#3a240e" />
    <path
       id="path15486"
       d=" M 199.13 94.01 C 206.66 93.10 199.23 100.77 199.13 94.01 Z"
       opacity="1.00"
       stroke-width="0.09375"
       stroke="#251607"
       fill="#251607" />
    <path
       id="path15488"
       d=" M 320.87 98.22 C 320.25 105.53 306.30 98.93 308.77 95.15 C 312.81 96.12 316.83 97.20 320.87 98.22 Z"
       opacity="1.00"
       stroke-width="0.09375"
       stroke="#2d2b2b"
       fill="#2d2b2b" />
    <path
       id="path15490"
       d=" M 278.68 97.12 C 281.69 105.92 291.22 107.67 299.21 104.25 C 294.49 108.38 288.04 112.63 281.61 111.49 C 280.24 106.79 279.73 101.89 278.68 97.12 Z"
       opacity="1.00"
       stroke-width="0.09375"
       stroke="#1c1b1b"
       fill="#1c1b1b" />
    <path
       id="path15492"
       d=" M 184.41 98.82 C 185.02 99.62 185.64 100.43 186.26 101.24 C 185.95 105.13 182.60 107.64 178.77 106.95 C 178.14 102.56 182.67 101.98 184.41 98.82 Z"
       opacity="1.00"
       stroke-width="0.09375"
       stroke="#2f1c09"
       fill="#2f1c09" />
    <path
       id="path15494"
       d=" M 191.25 101.96 C 200.11 95.15 214.55 102.25 215.04 113.26 C 216.33 124.31 205.76 132.46 195.31 129.90 C 183.14 127.07 179.71 107.70 191.25 101.96 Z"
       opacity="1.00"
       stroke-width="0.09375"
       stroke="#3f270f"
       fill="#3f270f" />
    <path
       id="path15496"
       d=" M 217.92 99.87 C 222.37 98.57 227.09 100.85 231.40 101.86 C 231.72 105.53 228.22 107.20 224.89 106.91 C 224.45 106.89 223.55 106.83 223.10 106.81 C 219.31 105.55 215.49 104.43 217.92 99.87 Z"
       opacity="1.00"
       stroke-width="0.09375"
       stroke="#3d240b"
       fill="#3d240b" />
    <path
       id="path15498"
       d=" M 214.86 102.13 C 215.86 101.35 216.87 100.58 217.92 99.87 C 215.49 104.43 219.31 105.55 223.10 106.81 C 219.70 107.18 212.13 107.34 214.86 102.13 Z"
       opacity="1.00"
       stroke-width="0.09375"
       stroke="#2f1c08"
       fill="#2f1c08" />
    <path
       id="path15500"
       d=" M 231.40 101.86 C 237.63 103.17 243.89 104.32 250.05 105.95 C 243.50 109.27 232.67 105.82 224.89 106.91 C 228.22 107.20 231.72 105.53 231.40 101.86 Z"
       opacity="1.00"
       stroke-width="0.09375"
       stroke="#321d09"
       fill="#321d09" />
    <path
       id="path15502"
       d=" M 387.46 109.77 C 392.91 97.25 424.86 118.94 401.12 119.15 C 394.64 127.70 407.09 122.00 409.01 127.69 C 407.29 135.01 414.99 152.63 400.99 149.12 C 398.44 162.87 400.92 180.42 399.97 195.62 C 396.69 200.97 384.69 198.55 387.93 190.70 C 387.82 176.81 388.32 162.91 387.88 149.03 C 351.29 149.59 314.94 148.38 280.04 136.08 C 279.84 135.55 279.44 134.48 279.24 133.95 C 280.91 134.21 282.59 134.46 284.26 134.76 C 285.37 135.00 286.49 135.23 287.62 135.47 C 291.14 136.21 294.58 137.26 298.08 138.10 C 299.91 138.50 301.77 138.73 303.62 139.01 C 308.76 140.26 313.82 141.85 318.98 143.06 C 320.52 143.43 322.09 143.77 323.65 144.13 C 330.48 146.91 337.98 145.14 345.09 145.22 C 348.92 145.12 352.76 145.04 356.60 145.00 C 357.24 145.05 358.51 145.15 359.15 145.20 C 360.52 145.32 361.90 145.21 363.28 145.21 L 364.14 145.21 C 368.19 145.48 372.24 146.07 376.32 146.27 C 380.58 146.27 384.85 145.95 389.12 145.90 C 392.32 145.98 395.58 146.17 398.80 146.17 C 412.78 151.00 410.97 120.83 396.91 127.75 C 392.70 127.71 388.52 128.06 384.34 127.86 C 381.43 127.63 378.59 127.35 375.71 127.15 C 366.41 126.89 357.10 126.94 347.80 126.81 C 345.31 126.81 342.83 126.80 340.36 126.80 C 338.93 126.56 337.50 126.32 336.08 126.08 C 333.76 125.69 333.39 124.45 334.89 122.68 C 352.51 125.69 370.53 122.75 388.27 124.82 C 391.91 114.41 379.48 122.91 378.22 116.55 C 375.32 109.33 383.27 110.37 387.46 109.77 M 391.17 125.08 C 398.55 131.13 400.25 117.88 397.72 111.61 C 395.74 99.37 385.44 117.72 391.17 125.08 M 381.05 113.03 C 378.13 119.06 391.76 119.43 388.97 113.04 C 388.51 111.22 381.47 111.21 381.05 113.03 M 400.02 111.99 C 398.00 126.05 416.01 107.88 400.02 111.99 M 390.98 157.33 C 393.58 168.75 385.51 189.16 394.86 195.59 C 397.64 195.00 398.18 192.28 398.24 189.83 C 398.13 189.40 397.90 188.55 397.79 188.12 C 398.31 180.96 397.98 173.76 397.73 166.60 C 398.05 165.11 397.87 163.58 397.83 162.07 C 404.21 149.48 388.02 140.77 390.98 157.33 Z"
       opacity="1.00"
       stroke-width="0.09375"
       stroke="#0b0907"
       fill="#0b0907" />
    <path
       id="path15504"
       d=" M 391.17 125.08 C 385.44 117.72 395.74 99.37 397.72 111.61 C 394.42 116.54 400.11 126.94 391.17 125.08 Z"
       opacity="1.00"
       stroke-width="0.09375"
       stroke="#4c2d0d"
       fill="#4c2d0d" />
    <path
       id="path15506"
       d=" M 150.17 109.97 C 157.73 108.70 173.80 107.70 181.98 109.95 C 171.41 111.45 160.77 109.60 150.17 109.97 Z"
       opacity="1.00"
       stroke-width="0.09375"
       stroke="#281809"
       fill="#281809" />
    <path
       id="path15508"
       d=" M 217.11 109.88 C 225.08 111.74 247.79 102.12 252.49 113.24 C 243.49 105.14 228.18 112.47 217.11 109.88 Z"
       opacity="1.00"
       stroke-width="0.09375"
       stroke="#251608"
       fill="#251608" />
    <path
       id="path15510"
       d=" M 153.99 119.00 C 147.56 121.61 147.54 112.24 150.17 109.97 C 160.77 109.60 171.41 111.45 181.98 109.95 C 183.55 120.98 176.37 119.83 167.04 118.96 C 162.69 118.92 158.34 118.90 153.99 119.00 Z"
       opacity="1.00"
       stroke-width="0.09375"
       stroke="#40270f"
       fill="#40270f" />
    <path
       id="path15512"
       d=" M 217.11 109.88 C 228.18 112.47 243.49 105.14 252.49 113.24 C 250.92 125.60 229.93 115.88 220.16 119.32 C 216.69 118.84 218.10 114.27 217.22 111.75 C 217.19 111.28 217.14 110.35 217.11 109.88 Z"
       opacity="1.00"
       stroke-width="0.09375"
       stroke="#402810"
       fill="#402810" />
    <path
       id="path15514"
       d=" M 217.22 111.75 C 218.10 114.27 216.69 118.84 220.16 119.32 C 216.37 122.59 216.69 114.92 217.22 111.75 Z"
       opacity="1.00"
       stroke-width="0.09375"
       stroke="#251708"
       fill="#251708" />
    <path
       id="path15516"
       d=" M 381.05 113.03 C 381.47 111.21 388.51 111.22 388.97 113.04 C 386.32 113.03 383.67 113.03 381.05 113.03 Z"
       opacity="1.00"
       stroke-width="0.09375"
       stroke="#38210c"
       fill="#38210c" />
    <path
       id="path15518"
       d=" M 391.17 125.08 C 400.11 126.94 394.42 116.54 397.72 111.61 C 400.25 117.88 398.55 131.13 391.17 125.08 Z"
       opacity="1.00"
       stroke-width="0.09375"
       stroke="#3d240c"
       fill="#3d240c" />
    <path
       id="path15520"
       d=" M 400.02 111.99 C 416.01 107.88 398.00 126.05 400.02 111.99 Z"
       opacity="1.00"
       stroke-width="0.09375"
       stroke="#4c2d0e"
       fill="#4c2d0e" />
    <path
       id="path15522"
       d=" M 381.05 113.03 C 383.67 113.03 386.32 113.03 388.97 113.04 C 391.76 119.43 378.13 119.06 381.05 113.03 Z"
       opacity="1.00"
       stroke-width="0.09375"
       stroke="#4c2d0e"
       fill="#4c2d0e" />
    <path
       id="path15524"
       d=" M 279.94 126.82 C 276.61 110.99 288.11 113.90 298.36 117.63 C 294.97 120.29 298.10 136.73 294.01 129.03 C 291.82 121.57 289.96 133.27 287.62 135.47 C 286.49 135.23 285.37 135.00 284.26 134.76 C 284.86 130.88 282.04 129.22 279.94 126.82 Z"
       opacity="1.00"
       stroke-width="0.09375"
       stroke="#3b230b"
       fill="#3b230b" />
    <path
       id="path15526"
       d=" M 298.36 117.63 C 301.37 118.37 304.35 119.23 307.43 119.68 C 300.03 120.34 295.02 130.93 298.08 138.10 C 294.58 137.26 291.14 136.21 287.62 135.47 C 289.96 133.27 291.82 121.57 294.01 129.03 C 298.10 136.73 294.97 120.29 298.36 117.63 Z"
       opacity="1.00"
       stroke-width="0.09375"
       stroke="#341e09"
       fill="#341e09" />
    <path
       id="path15528"
       d=" M 153.99 119.00 C 158.34 118.90 162.69 118.92 167.04 118.96 C 165.44 120.42 155.72 121.58 153.99 119.00 Z"
       opacity="1.00"
       stroke-width="0.09375"
       stroke="#1e1207"
       fill="#1e1207" />
    <path
       id="path15530"
       d=" M 307.43 119.68 C 307.82 119.74 308.62 119.84 309.02 119.90 C 310.09 125.55 306.11 132.22 310.89 137.19 C 309.74 142.32 304.17 131.90 303.62 139.01 C 301.77 138.73 299.91 138.50 298.08 138.10 C 295.02 130.93 300.03 120.34 307.43 119.68 Z"
       opacity="1.00"
       stroke-width="0.09375"
       stroke="#3e240b"
       fill="#3e240b" />
    <path
       id="path15532"
       d=" M 309.02 119.90 C 311.11 120.44 313.18 121.12 315.23 121.84 C 313.62 127.05 308.19 133.47 314.07 137.85 C 317.82 133.94 322.17 125.89 315.99 122.08 C 318.36 122.81 320.73 123.42 323.15 124.07 C 325.38 130.97 324.61 137.97 318.98 143.06 C 313.82 141.85 308.76 140.26 303.62 139.01 C 304.17 131.90 309.74 142.32 310.89 137.19 C 306.11 132.22 310.09 125.55 309.02 119.90 Z"
       opacity="1.00"
       stroke-width="0.09375"
       stroke="#36200a"
       fill="#36200a" />
    <path
       id="path15534"
       d=" M 149.02 122.95 C 150.26 122.37 151.58 121.97 152.92 121.73 C 147.57 131.86 161.03 136.85 158.95 147.14 C 153.06 140.37 150.42 131.65 149.02 122.95 Z"
       opacity="1.00"
       stroke-width="0.09375"
       stroke="#3a240e"
       fill="#3a240e" />
    <path
       id="path15536"
       d=" M 152.92 121.73 C 159.44 126.78 170.15 133.23 171.04 141.51 C 168.01 140.97 166.26 138.26 163.70 136.92 C 158.83 137.49 163.02 145.06 158.95 147.14 C 161.03 136.85 147.57 131.86 152.92 121.73 Z"
       opacity="1.00"
       stroke-width="0.09375"
       stroke="#452b11"
       fill="#452b11" />
    <path
       id="path15538"
       d=" M 171.07 122.33 C 191.14 111.98 175.07 143.10 167.19 131.72 C 164.15 128.65 168.58 124.27 171.07 122.33 Z"
       opacity="1.00"
       stroke-width="0.09375"
       stroke="#422910"
       fill="#422910" />
    <path
       id="path15540"
       d=" M 216.35 122.11 C 221.98 123.55 228.93 141.88 217.49 139.68 C 215.45 134.05 210.01 127.00 216.35 122.11 Z"
       opacity="1.00"
       stroke-width="0.09375"
       stroke="#3c250e"
       fill="#3c250e" />
    <path
       id="path15542"
       d=" M 234.24 121.84 C 238.86 123.80 252.31 117.49 251.05 125.87 C 246.09 124.86 236.89 125.32 234.24 121.84 Z"
       opacity="1.00"
       stroke-width="0.09375"
       stroke="#331e09"
       fill="#331e09" />
    <path
       id="path15544"
       transform="scale(0.8,0.8)"
       d="M 322.28711 152.75 C 314.44961 153.8125 318.38789 165.21172 321.40039 169.76172 C 317.02539 173.39922 317.2375 164.6375 313.5625 169.8125 C 304.6 194.25 281.19961 212.5625 254.97461 214 C 250.42461 214.7125 245.84922 215.46328 241.32422 213.98828 C 219.13672 210.93828 200.27461 195.31211 189.91211 175.97461 C 185.81211 180.76211 193.24922 190.05 192.01172 197.25 C 206.43672 193.3125 189.36328 224.9125 200.61328 222.8125 C 199.23828 216.2625 201.24922 209.67422 201.57422 203.13672 C 208.51172 202.59922 214.425 209.63672 219.3125 214.01172 C 216.825 225.39922 219.91289 233.475 228.77539 240.4375 C 231.01289 231.1125 241.85039 235.99961 243.52539 227.53711 C 243.13789 221.64961 233.97461 223.29961 233.72461 217.66211 C 239.48711 221.67461 252.22539 217.71328 248.71289 228.23828 C 239.82539 231.56328 253.33828 234.48789 254.05078 239.90039 C 265.03828 233.83789 246.11328 219.07539 259.73828 216.40039 C 257.53828 225.10039 264.21328 232.95 261.61328 241.625 C 262.41328 241.5125 264.00078 241.2875 264.80078 241.1875 C 267.40078 228.175 270.0625 241.17539 278.6875 237.71289 C 283.875 235.82539 289.13672 234.02422 294.01172 231.38672 C 294.52422 221.99922 301.2 216.4 308.625 212.6875 C 314.3875 213.5625 305.21172 218.18828 309.01172 221.55078 C 309.54922 221.10078 310.61289 220.18828 311.15039 219.73828 C 312.70039 214.60078 313.55 208.125 307.3125 206.1875 C 297.7375 203.05 308.62422 181.51172 314.19922 192.26172 C 317.81172 197.91172 308.4125 200.91211 309.375 205.84961 C 320.0125 203.17461 328.73672 184.83789 316.13672 177.71289 C 325.79922 177.60039 328.08711 158.6 322.28711 152.75 z "
       style="opacity:1;fill:#432a10;stroke:#432a10;stroke-width:0.1171875" />
    <path
       id="path15546"
       d=" M 315.23 121.84 L 315.99 122.08 C 322.17 125.89 317.82 133.94 314.07 137.85 C 308.19 133.47 313.62 127.05 315.23 121.84 Z"
       opacity="1.00"
       stroke-width="0.09375"
       stroke="#3f250b"
       fill="#3f250b" />
    <path
       id="path15548"
       transform="scale(0.8,0.8)"
       d="M 186.27539 153.6875 C 185.55039 154.0375 184.08828 154.72422 183.36328 155.07422 C 184.56328 162.29922 186.62461 169.41211 189.91211 175.97461 C 200.27461 195.31211 219.13672 210.93828 241.32422 213.98828 C 245.88672 214.05078 250.41211 214.025 254.97461 214 C 281.19961 212.5625 304.6 194.25 313.5625 169.8125 C 313.575 169.3125 313.62539 168.31328 313.65039 167.80078 L 313.05078 164.75 C 312.08828 166.125 311.09961 167.48672 310.16211 168.88672 C 305.21211 182.08672 296.21328 194.05 283.92578 201.1875 C 282.98828 200 282.13711 198.74922 281.28711 197.51172 C 280.62461 197.24922 279.32461 196.71172 278.66211 196.44922 C 282.52461 203.32422 275.68711 207.96172 269.22461 207.19922 C 264.53711 198.88672 262.45078 189.38672 257.73828 181.07422 C 256.97578 181.36172 255.43828 181.93789 254.67578 182.21289 L 254.875 183.3125 C 255.3875 184.575 255.88672 185.83711 256.38672 187.09961 C 259.34922 194.26211 272.3625 210.85039 257.75 210.02539 C 257.2125 210.10039 256.15078 210.26211 255.61328 210.34961 C 247.35078 211.92461 238.78789 210.2625 230.83789 207.9375 C 209.60039 206.2625 229.79922 190.55 232.82422 181 L 231.17578 180 C 224.92578 186 222.33828 195.48672 215.05078 200.19922 C 202.06328 196.88672 210.10078 186.48711 214.98828 180.22461 C 214.72578 179.84961 214.17461 179.11328 213.91211 178.73828 C 208.28711 183.71328 203.5 195.80078 198.6875 183.92578 C 191.325 175.46328 188.02539 164.5625 186.27539 153.6875 z "
       style="opacity:1;fill:#0f0903;stroke:#0f0903;stroke-width:0.1171875" />
    <path
       id="path15550"
       d=" M 331.29 123.32 C 332.47 123.06 333.67 122.84 334.89 122.68 C 333.39 124.45 333.76 125.69 336.08 126.08 C 332.90 125.71 329.77 125.27 326.72 124.33 C 328.24 124.00 329.76 123.66 331.29 123.32 Z"
       opacity="1.00"
       stroke-width="0.09375"
       stroke="#201409"
       fill="#201409" />
    <path
       id="path15552"
       d=" M 323.15 124.07 C 324.34 124.16 325.53 124.25 326.72 124.33 C 329.77 125.27 332.90 125.71 336.08 126.08 C 337.50 126.32 338.93 126.56 340.36 126.80 C 338.79 134.51 352.20 128.53 348.38 137.39 C 341.26 131.75 340.47 147.66 333.05 143.01 C 342.31 141.69 341.44 126.81 331.73 127.26 C 333.74 132.35 335.65 137.71 333.05 143.01 C 329.88 140.35 326.55 141.97 323.65 144.13 C 322.09 143.77 320.52 143.43 318.98 143.06 C 324.61 137.97 325.38 130.97 323.15 124.07 Z"
       opacity="1.00"
       stroke-width="0.09375"
       stroke="#3f250b"
       fill="#3f250b" />
    <path
       id="path15554"
       d=" M 176.83 137.68 C 180.13 133.38 184.53 121.19 189.25 129.81 C 180.56 124.18 187.94 142.40 176.83 137.68 Z"
       opacity="1.00"
       stroke-width="0.09375"
       stroke="#37220d"
       fill="#37220d" />
    <path
       id="path15556"
       d=" M 219.20 143.96 C 228.89 139.88 236.37 128.46 246.41 127.67 C 247.10 130.12 247.70 132.60 248.13 135.11 C 244.17 145.67 236.97 155.24 227.14 160.95 C 226.39 160.00 225.71 159.00 225.03 158.01 C 223.35 153.22 221.59 148.45 219.20 143.96 Z"
       opacity="1.00"
       stroke-width="0.09375"
       stroke="#422910"
       fill="#422910" />
    <path
       id="path15558"
       d=" M 279.23 127.21 L 279.94 126.82 C 282.04 129.22 284.86 130.88 284.26 134.76 C 282.59 134.46 280.91 134.21 279.24 133.95 C 277.94 131.84 278.74 129.43 279.23 127.21 Z"
       opacity="1.00"
       stroke-width="0.09375"
       stroke="#311d09"
       fill="#311d09" />
    <path
       id="path15560"
       d=" M 331.73 127.26 C 341.44 126.81 342.31 141.69 333.05 143.01 C 335.65 137.71 333.74 132.35 331.73 127.26 Z"
       opacity="1.00"
       stroke-width="0.09375"
       stroke="#4b2c0e"
       fill="#4b2c0e" />
    <path
       id="path15562"
       d=" M 340.36 126.80 C 342.83 126.80 345.31 126.81 347.80 126.81 C 347.22 131.28 356.24 143.21 355.43 134.03 C 355.54 128.13 360.76 139.42 360.98 133.88 C 362.15 127.38 367.55 135.83 363.20 137.38 C 359.26 137.66 359.63 142.33 359.15 145.20 C 358.51 145.15 357.24 145.05 356.60 145.00 C 361.72 137.88 347.83 135.75 349.05 143.78 C 347.50 138.42 341.59 139.95 345.09 145.22 C 337.98 145.14 330.48 146.91 323.65 144.13 C 326.55 141.97 329.88 140.35 333.05 143.01 C 340.47 147.66 341.26 131.75 348.38 137.39 C 352.20 128.53 338.79 134.51 340.36 126.80 Z"
       opacity="1.00"
       stroke-width="0.09375"
       stroke="#36200a"
       fill="#36200a" />
    <path
       id="path15564"
       d=" M 347.80 126.81 C 357.10 126.94 366.41 126.89 375.71 127.15 C 378.56 127.33 381.46 127.67 384.34 127.86 C 388.52 128.06 392.70 127.71 396.91 127.75 C 399.68 133.38 402.25 140.26 398.80 146.17 C 395.58 146.17 392.32 145.98 389.12 145.90 C 381.45 147.98 379.29 141.67 383.29 136.87 C 386.99 127.66 369.64 128.88 370.51 137.45 C 370.52 145.11 362.01 136.94 363.28 145.21 C 361.90 145.21 360.52 145.32 359.15 145.20 C 359.63 142.33 359.26 137.66 363.20 137.38 C 367.55 135.83 362.15 127.38 360.98 133.88 C 360.76 139.42 355.54 128.13 355.43 134.03 C 356.24 143.21 347.22 131.28 347.80 126.81 Z"
       opacity="1.00"
       stroke-width="0.09375"
       stroke="#40260c"
       fill="#40260c" />
    <path
       id="path15566"
       d=" M 375.71 127.15 C 378.59 127.35 381.43 127.63 384.34 127.86 C 381.46 127.67 378.56 127.33 375.71 127.15 Z"
       opacity="1.00"
       stroke-width="0.09375"
       stroke="#291a0a"
       fill="#291a0a" />
    <path
       id="path15568"
       d=" M 176.83 137.68 C 187.94 142.40 180.56 124.18 189.25 129.81 C 190.25 130.90 191.26 131.99 192.24 133.11 C 189.94 136.83 187.57 140.51 184.94 144.00 C 179.94 148.80 177.87 156.39 172.04 160.16 C 161.65 157.51 168.08 149.19 171.99 144.18 C 173.69 142.07 175.31 139.91 176.83 137.68 Z"
       opacity="1.00"
       stroke-width="0.09375"
       stroke="#422910"
       fill="#422910" />
    <path
       id="path15570"
       d=" M 246.41 127.67 C 248.90 127.69 250.38 129.36 250.44 131.80 C 249.67 132.90 248.88 133.99 248.13 135.11 C 247.70 132.60 247.10 130.12 246.41 127.67 Z"
       opacity="1.00"
       stroke-width="0.09375"
       stroke="#311f0c"
       fill="#311f0c" />
    <path
       id="path15572"
       d=" M 396.91 127.75 C 410.97 120.83 412.78 151.00 398.80 146.17 C 402.25 140.26 399.68 133.38 396.91 127.75 Z"
       opacity="1.00"
       stroke-width="0.09375"
       stroke="#35200a"
       fill="#35200a" />
    <path
       id="path15574"
       d=" M 192.24 133.11 C 193.06 131.87 193.94 130.59 195.31 129.90 C 198.00 131.25 200.98 131.60 203.96 131.75 C 199.61 135.33 205.37 140.62 206.19 144.86 C 205.58 145.09 204.35 145.55 203.74 145.77 C 200.18 145.96 196.65 146.25 193.09 146.10 C 190.77 145.90 188.51 145.36 186.26 144.80 C 185.93 144.60 185.27 144.20 184.94 144.00 C 187.57 140.51 189.94 136.83 192.24 133.11 M 196.29 134.21 C 193.64 136.63 186.44 143.27 195.60 142.53 C 204.15 147.38 199.80 135.16 196.29 134.21 Z"
       opacity="1.00"
       stroke-width="0.09375"
       stroke="#040201"
       fill="#040201" />
    <path
       id="path15576"
       d=" M 203.96 131.75 C 214.18 125.70 213.40 140.43 218.16 145.93 C 219.48 149.78 221.03 153.56 222.93 157.16 C 226.02 162.66 220.55 166.37 215.38 165.76 C 211.63 159.11 209.96 151.51 206.19 144.86 C 205.37 140.62 199.61 135.33 203.96 131.75 Z"
       opacity="1.00"
       stroke-width="0.09375"
       stroke="#402810"
       fill="#402810" />
    <path
       id="path15578"
       d=" M 370.51 137.45 C 369.64 128.88 386.99 127.66 383.29 136.87 C 379.29 141.67 381.45 147.98 389.12 145.90 C 384.85 145.95 380.58 146.27 376.32 146.27 C 373.60 137.22 369.35 144.70 364.14 145.21 L 363.28 145.21 C 362.01 136.94 370.52 145.11 370.51 137.45 Z"
       opacity="1.00"
       stroke-width="0.09375"
       stroke="#3a230b"
       fill="#3a230b" />
    <path
       id="path15580"
       d=" M 158.95 147.14 C 163.02 145.06 158.83 137.49 163.70 136.92 C 166.26 138.26 168.01 140.97 171.04 141.51 C 171.06 141.88 171.10 142.62 171.13 142.99 C 166.63 146.97 162.80 156.64 158.95 147.14 Z"
       opacity="1.00"
       stroke-width="0.09375"
       stroke="#3e270f"
       fill="#3e270f" />
    <path
       id="path15582"
       d=" M 349.05 143.78 C 347.83 135.75 361.72 137.88 356.60 145.00 C 352.76 145.04 348.92 145.12 345.09 145.22 C 341.59 139.95 347.50 138.42 349.05 143.78 Z"
       opacity="1.00"
       stroke-width="0.09375"
       stroke="#40260c"
       fill="#40260c" />
    <path
       id="path15584"
       d=" M 364.14 145.21 C 369.35 144.70 373.60 137.22 376.32 146.27 C 372.24 146.07 368.19 145.48 364.14 145.21 Z"
       opacity="1.00"
       stroke-width="0.09375"
       stroke="#2c1a09"
       fill="#2c1a09" />
    <path
       id="path15586"
       d=" M 219.20 143.96 C 221.59 148.45 223.35 153.22 225.03 158.01 C 224.50 157.80 223.46 157.37 222.93 157.16 C 221.03 153.56 219.48 149.78 218.16 145.93 C 218.42 145.44 218.94 144.46 219.20 143.96 Z"
       opacity="1.00"
       stroke-width="0.09375"
       stroke="#1c1207"
       fill="#1c1207" />
    <path
       id="path15588"
       d=" M 186.26 144.80 C 188.51 145.36 190.77 145.90 193.09 146.10 C 196.68 146.39 200.29 146.57 203.90 146.65 C 204.31 147.66 204.71 148.67 205.11 149.68 C 204.43 155.78 208.79 161.63 206.20 168.02 C 205.77 168.08 204.92 168.21 204.49 168.28 C 198.44 165.62 192.96 155.45 192.05 166.95 C 189.54 163.37 187.14 159.95 184.67 166.35 C 167.68 165.01 183.84 152.44 186.26 144.80 Z"
       opacity="1.00"
       stroke-width="0.09375"
       stroke="#412810"
       fill="#412810" />
    <path
       id="path15590"
       d=" M 193.09 146.10 C 196.65 146.25 200.18 145.96 203.74 145.77 L 203.90 146.65 C 200.29 146.57 196.68 146.39 193.09 146.10 Z"
       opacity="1.00"
       stroke-width="0.09375"
       stroke="#2a1a0a"
       fill="#2a1a0a" />
    <path
       id="path15592"
       d=" M 390.98 157.33 C 388.02 140.77 404.21 149.48 397.83 162.07 C 399.47 148.20 395.97 147.43 390.98 157.33 Z"
       opacity="1.00"
       stroke-width="0.09375"
       stroke="#46290d"
       fill="#46290d" />
    <path
       id="path15594"
       d=" M 390.98 157.33 C 395.97 147.43 399.47 148.20 397.83 162.07 C 397.87 163.58 398.05 165.11 397.73 166.60 C 395.41 173.59 396.04 181.09 397.79 188.12 C 397.90 188.55 398.13 189.40 398.24 189.83 C 397.14 191.77 395.99 193.68 394.86 195.59 C 385.51 189.16 393.58 168.75 390.98 157.33 Z"
       opacity="1.00"
       stroke-width="0.09375"
       stroke="#53310f"
       fill="#53310f" />
    <path
       id="path15596"
       d=" M 205.11 149.68 C 207.48 155.41 217.89 168.68 206.20 168.02 C 208.79 161.63 204.43 155.78 205.11 149.68 Z"
       opacity="1.00"
       stroke-width="0.09375"
       stroke="#39230e"
       fill="#39230e" />
    <path
       id="path15598"
       d=" M 192.05 166.95 C 192.96 155.45 198.44 165.62 204.49 168.28 C 197.88 169.54 191.03 168.21 184.67 166.35 C 187.14 159.95 189.54 163.37 192.05 166.95 Z"
       opacity="1.00"
       stroke-width="0.09375"
       stroke="#39230e"
       fill="#39230e" />
    <path
       id="path15600"
       d=" M 397.79 188.12 C 396.04 181.09 395.41 173.59 397.73 166.60 C 397.98 173.76 398.31 180.96 397.79 188.12 Z"
       opacity="1.00"
       stroke-width="0.09375"
       stroke="#472a0d"
       fill="#472a0d" />
    <path
       id="path15602"
       d=" M 159.84 183.27 C 171.01 191.20 164.85 167.70 175.45 171.21 C 173.46 180.32 175.93 186.78 183.02 192.35 C 175.00 190.28 166.67 188.22 159.84 183.27 Z"
       opacity="1.00"
       stroke-width="0.09375"
       stroke="#3b250e"
       fill="#3b250e" />
    <path
       id="path15604"
       d=" M 235.21 185.11 C 235.62 177.60 240.96 173.12 246.90 170.15 C 251.51 170.85 244.17 174.55 247.21 177.24 C 243.78 180.65 239.49 182.95 235.21 185.11 Z"
       opacity="1.00"
       stroke-width="0.09375"
       stroke="#3d260f"
       fill="#3d260f" />
    <path
       id="path15606"
       d=" M 193.06 171.19 C 196.71 171.24 200.33 171.22 203.98 171.20 C 200.34 171.77 196.68 172.37 193.06 171.19 Z"
       opacity="1.00"
       stroke-width="0.09375"
       stroke="#2b1b0a"
       fill="#2b1b0a" />
    <path
       id="path15608"
       d=" M 203.24 191.92 C 212.03 187.07 196.89 175.26 207.79 173.12 C 206.03 180.08 211.37 186.36 209.29 193.30 C 200.60 194.83 191.65 193.90 183.02 192.35 C 184.81 184.89 193.48 188.80 194.82 182.03 C 194.51 177.32 187.18 178.64 186.98 174.13 C 191.59 177.34 201.78 174.17 198.97 182.59 C 191.86 185.25 202.67 187.59 203.24 191.92 Z"
       opacity="1.00"
       stroke-width="0.09375"
       stroke="#3c250e"
       fill="#3c250e" />
    <path
       id="path15610"
       d=" M 211.84 192.95 C 213.92 182.54 216.05 192.94 222.95 190.17 C 219.35 191.46 215.65 192.51 211.84 192.95 Z"
       opacity="1.00"
       stroke-width="0.09375"
       stroke="#38220d"
       fill="#38220d" />
    <path
       id="path15612"
       d=" M 394.86 195.59 C 395.99 193.68 397.14 191.77 398.24 189.83 C 398.18 192.28 397.64 195.00 394.86 195.59 Z"
       opacity="1.00"
       stroke-width="0.09375"
       stroke="#40260c"
       fill="#40260c" />
  </g>
</svg>
